M48
; DRILL file {KiCad (6.0.1)} date Sat Apr  1 17:19:45 2023
; FORMAT={-:-/ absolute / metric / decimal}
; #@! TF.CreationDate,2023-04-01T17:19:45+08:00
; #@! TF.GenerationSoftware,Kicad,Pcbnew,(6.0.1)
; #@! TF.FileFunction,Plated,1,2,PTH
FMAT,2
METRIC
; #@! TA.AperFunction,Plated,PTH,ViaDrill
T1C0.300
; #@! TA.AperFunction,Plated,PTH,ViaDrill
T2C0.400
; #@! TA.AperFunction,Plated,PTH,ComponentDrill
T3C0.600
%
G90
G05
T1
X1.49Y58.96
X3.957Y45.483
X5.1Y38.65
X6.458Y42.92
X7.222Y49.528
X7.97Y12.23
X7.983Y12.956
X8.574Y13.508
X8.74Y48.01
X8.97Y34.95
X9.36Y47.32
X9.868Y58.307
X10.024Y51.55
X10.13Y18.52
X10.97Y47.3
X11.055Y18.171
X11.7Y44.9
X11.86Y34.52
X11.87Y50.865
X12.359Y50.314
X12.708Y41.992
X13.287Y59.757
X13.338Y51.54
X13.488Y41.212
X13.774Y22.954
X13.89Y47.398
X14.132Y19.071
X14.36Y34.52
X14.55Y18.477
X14.85Y21.16
X14.85Y20.36
X15.64Y25.58
X15.64Y24.235
X15.65Y21.16
X15.65Y20.36
X15.765Y17.204
X15.77Y15.86
X15.79Y63.75
X15.79Y47.398
X16.16Y11.75
X16.38Y32.048
X16.384Y31.264
X16.45Y21.16
X16.45Y20.36
X16.901Y22.953
X17.036Y47.409
X17.04Y63.74
X17.515Y30.888
X17.521Y13.11
X17.616Y32.078
X17.838Y47.388
X17.84Y58.84
X18.389Y51.54
X18.523Y36.057
X18.624Y34.475
X19.66Y28.96
X19.86Y47.29
X20.257Y27.831
X21.115Y51.045
X21.12Y44.898
X21.36Y28.08
X21.723Y46.221
X21.8Y35.95
X21.918Y32.416
X22.07Y29.653
X22.762Y18.621
X23.02Y32.98
X23.525Y27.83
X23.652Y24.587
X24.28Y51.68
X24.855Y36.419
X25.063Y19.971
X25.121Y37.977
X25.17Y38.923
X25.357Y42.411
X25.823Y36.196
X26.12Y30.71
X27.161Y21.078
X27.702Y23.212
X27.704Y19.828
X27.8Y43.7
X28.037Y41.046
X28.622Y37.696
X28.65Y24.8
X28.78Y33.02
X29.04Y27.85
X29.282Y27.041
X29.6Y42.923
X29.6Y39.86
X30.58Y49.08
X30.62Y24.863
X30.64Y36.47
X30.64Y35.67
X30.64Y34.87
X30.678Y27.79
X30.678Y27.04
X30.727Y20.407
X30.77Y42.918
X30.77Y39.88
X31.238Y25.74
X31.273Y24.213
X31.37Y39.353
X31.44Y37.27
X31.44Y36.47
X31.44Y35.67
X31.44Y34.87
X31.44Y34.07
X32.11Y31.92
X32.131Y28.548
X32.24Y38.07
X32.24Y37.27
X32.24Y36.47
X32.24Y35.67
X32.24Y34.87
X32.24Y34.07
X32.24Y33.27
X33.04Y38.07
X33.04Y37.27
X33.04Y36.47
X33.04Y35.67
X33.04Y34.87
X33.04Y34.07
X33.04Y33.27
X33.38Y24.23
X33.73Y47.578
X33.84Y38.07
X33.84Y37.27
X33.84Y36.47
X33.84Y35.67
X33.84Y34.87
X33.84Y34.07
X33.84Y33.27
X34.234Y31.298
X34.279Y28.352
X34.466Y20.407
X34.64Y37.27
X34.64Y36.47
X34.64Y35.67
X34.64Y34.87
X34.64Y34.07
X34.91Y39.87
X34.99Y38.26
X35.13Y23.12
X35.132Y19.742
X35.22Y27.403
X35.44Y36.47
X35.44Y35.67
X35.44Y34.87
X35.47Y24.61
X35.675Y33.751
X35.94Y39.85
X36.253Y37.733
X36.56Y24.87
X36.616Y28.465
X36.618Y26.974
X36.953Y31.653
X37.26Y38.26
X37.329Y36.624
X37.331Y35.897
X37.34Y32.378
X37.84Y47.712
X37.99Y24.85
X38.16Y30.84
X38.39Y28.07
X39.957Y30.84
X40.19Y37.45
X40.25Y33.45
X40.745Y26.515
X40.75Y31.56
X42.02Y31.56
X42.075Y26.515
X43.138Y26.515
X43.45Y31.56
X44.0Y31.01
X44.0Y29.81
X44.0Y28.64
X44.0Y27.377
X44.42Y23.63
T2
X1.805Y31.75
X1.805Y30.12
X1.805Y28.54
X1.805Y27.12
X2.665Y32.61
X2.775Y26.52
X4.185Y26.52
X4.305Y32.61
X5.715Y32.61
X5.835Y26.52
X6.02Y24.47
X6.02Y23.05
X6.02Y21.6
X7.25Y20.37
X8.93Y20.37
X10.67Y20.37
X11.83Y24.35
X11.83Y22.91
X11.83Y21.53
X28.684Y16.509
X28.784Y7.349
X30.064Y7.359
X30.204Y16.519
X36.304Y16.509
X36.719Y7.344
X37.718Y7.35
X37.814Y16.519
T3
G00X10.075Y7.88
M15
G01X10.075Y6.78
M16
G05
G00X10.075Y3.45
M15
G01X10.075Y2.85
M16
G05
G00X18.715Y7.88
M15
G01X18.715Y6.78
M16
G05
G00X18.715Y3.45
M15
G01X18.715Y2.85
M16
G05
T0
M30
