%TF.GenerationSoftware,KiCad,Pcbnew,(6.0.1)*%
%TF.CreationDate,2023-04-01T17:19:45+08:00*%
%TF.ProjectId,EtherCAT2XXX,45746865-7243-4415-9432-5858582e6b69,rev?*%
%TF.SameCoordinates,Original*%
%TF.FileFunction,Paste,Top*%
%TF.FilePolarity,Positive*%
%FSLAX46Y46*%
G04 Gerber Fmt 4.6, Leading zero omitted, Abs format (unit mm)*
G04 Created by KiCad (PCBNEW (6.0.1)) date 2023-04-01 17:19:45*
%MOMM*%
%LPD*%
G01*
G04 APERTURE LIST*
G04 Aperture macros list*
%AMRoundRect*
0 Rectangle with rounded corners*
0 $1 Rounding radius*
0 $2 $3 $4 $5 $6 $7 $8 $9 X,Y pos of 4 corners*
0 Add a 4 corners polygon primitive as box body*
4,1,4,$2,$3,$4,$5,$6,$7,$8,$9,$2,$3,0*
0 Add four circle primitives for the rounded corners*
1,1,$1+$1,$2,$3*
1,1,$1+$1,$4,$5*
1,1,$1+$1,$6,$7*
1,1,$1+$1,$8,$9*
0 Add four rect primitives between the rounded corners*
20,1,$1+$1,$2,$3,$4,$5,0*
20,1,$1+$1,$4,$5,$6,$7,0*
20,1,$1+$1,$6,$7,$8,$9,0*
20,1,$1+$1,$8,$9,$2,$3,0*%
G04 Aperture macros list end*
%ADD10RoundRect,0.200000X0.200000X0.275000X-0.200000X0.275000X-0.200000X-0.275000X0.200000X-0.275000X0*%
%ADD11RoundRect,0.200000X0.275000X-0.200000X0.275000X0.200000X-0.275000X0.200000X-0.275000X-0.200000X0*%
%ADD12RoundRect,0.150000X-0.150000X0.675000X-0.150000X-0.675000X0.150000X-0.675000X0.150000X0.675000X0*%
%ADD13RoundRect,0.200000X-0.200000X-0.275000X0.200000X-0.275000X0.200000X0.275000X-0.200000X0.275000X0*%
%ADD14RoundRect,0.250000X-0.625000X0.312500X-0.625000X-0.312500X0.625000X-0.312500X0.625000X0.312500X0*%
%ADD15RoundRect,0.225000X0.250000X-0.225000X0.250000X0.225000X-0.250000X0.225000X-0.250000X-0.225000X0*%
%ADD16RoundRect,0.218750X-0.381250X0.218750X-0.381250X-0.218750X0.381250X-0.218750X0.381250X0.218750X0*%
%ADD17RoundRect,0.218750X0.381250X-0.218750X0.381250X0.218750X-0.381250X0.218750X-0.381250X-0.218750X0*%
%ADD18RoundRect,0.225000X-0.225000X-0.250000X0.225000X-0.250000X0.225000X0.250000X-0.225000X0.250000X0*%
%ADD19RoundRect,0.225000X0.225000X0.250000X-0.225000X0.250000X-0.225000X-0.250000X0.225000X-0.250000X0*%
%ADD20RoundRect,0.250000X-0.312500X-0.625000X0.312500X-0.625000X0.312500X0.625000X-0.312500X0.625000X0*%
%ADD21RoundRect,0.250000X0.650000X-0.325000X0.650000X0.325000X-0.650000X0.325000X-0.650000X-0.325000X0*%
%ADD22RoundRect,0.200000X-0.275000X0.200000X-0.275000X-0.200000X0.275000X-0.200000X0.275000X0.200000X0*%
%ADD23R,1.200000X1.400000*%
%ADD24RoundRect,0.150000X-0.150000X0.512500X-0.150000X-0.512500X0.150000X-0.512500X0.150000X0.512500X0*%
%ADD25R,1.600000X2.180000*%
%ADD26RoundRect,0.150000X0.150000X-0.825000X0.150000X0.825000X-0.150000X0.825000X-0.150000X-0.825000X0*%
%ADD27RoundRect,0.218750X0.218750X0.256250X-0.218750X0.256250X-0.218750X-0.256250X0.218750X-0.256250X0*%
%ADD28RoundRect,0.218750X0.256250X-0.218750X0.256250X0.218750X-0.256250X0.218750X-0.256250X-0.218750X0*%
%ADD29RoundRect,0.150000X0.150000X0.700000X-0.150000X0.700000X-0.150000X-0.700000X0.150000X-0.700000X0*%
%ADD30RoundRect,0.250000X0.250000X1.100000X-0.250000X1.100000X-0.250000X-1.100000X0.250000X-1.100000X0*%
%ADD31RoundRect,0.225000X-0.250000X0.225000X-0.250000X-0.225000X0.250000X-0.225000X0.250000X0.225000X0*%
%ADD32R,1.400000X1.200000*%
%ADD33R,0.280000X0.665000*%
%ADD34R,2.475000X1.625000*%
%ADD35R,0.760000X1.700000*%
%ADD36RoundRect,0.150000X-0.700000X0.150000X-0.700000X-0.150000X0.700000X-0.150000X0.700000X0.150000X0*%
%ADD37RoundRect,0.250000X-1.100000X0.250000X-1.100000X-0.250000X1.100000X-0.250000X1.100000X0.250000X0*%
%ADD38R,0.600000X1.500000*%
%ADD39R,1.200000X1.800000*%
%ADD40RoundRect,0.218750X-0.218750X-0.256250X0.218750X-0.256250X0.218750X0.256250X-0.218750X0.256250X0*%
%ADD41R,0.600000X1.450000*%
%ADD42R,0.300000X1.450000*%
%ADD43RoundRect,0.075000X0.075000X-0.725000X0.075000X0.725000X-0.075000X0.725000X-0.075000X-0.725000X0*%
%ADD44RoundRect,0.075000X0.725000X-0.075000X0.725000X0.075000X-0.725000X0.075000X-0.725000X-0.075000X0*%
%ADD45O,2.000000X0.220000*%
%ADD46O,0.220000X2.000000*%
%ADD47O,5.700000X5.700000*%
%ADD48RoundRect,0.250000X-0.325000X-0.650000X0.325000X-0.650000X0.325000X0.650000X-0.325000X0.650000X0*%
G04 APERTURE END LIST*
D10*
%TO.C,R49*%
X32225000Y50210000D03*
X30575000Y50210000D03*
%TD*%
D11*
%TO.C,R25*%
X12160000Y58455000D03*
X12160000Y60105000D03*
%TD*%
D12*
%TO.C,U9*%
X37545000Y55445000D03*
X36275000Y55445000D03*
X35005000Y55445000D03*
X33735000Y55445000D03*
X33735000Y50195000D03*
X35005000Y50195000D03*
X36275000Y50195000D03*
X37545000Y50195000D03*
%TD*%
D13*
%TO.C,R6*%
X13150000Y12890000D03*
X14800000Y12890000D03*
%TD*%
D14*
%TO.C,R8*%
X23656665Y11849151D03*
X23656665Y8924151D03*
%TD*%
D15*
%TO.C,C29*%
X10940000Y61535000D03*
X10940000Y63085000D03*
%TD*%
D16*
%TO.C,L3*%
X13190000Y22122500D03*
X13190000Y19997500D03*
%TD*%
D17*
%TO.C,L2*%
X18250000Y19307500D03*
X18250000Y21432500D03*
%TD*%
D18*
%TO.C,C38*%
X18365000Y31440000D03*
X19915000Y31440000D03*
%TD*%
D19*
%TO.C,C30*%
X21565000Y52550000D03*
X20015000Y52550000D03*
%TD*%
D20*
%TO.C,R11*%
X21021665Y4509151D03*
X23946665Y4509151D03*
%TD*%
D21*
%TO.C,C19*%
X21326665Y8901651D03*
X21326665Y11851651D03*
%TD*%
D22*
%TO.C,R18*%
X45510000Y22253750D03*
X45510000Y20603750D03*
%TD*%
D18*
%TO.C,C17*%
X22725000Y27030000D03*
X24275000Y27030000D03*
%TD*%
D23*
%TO.C,Y2*%
X3285000Y30740000D03*
X3285000Y28540000D03*
X4985000Y28540000D03*
X4985000Y30740000D03*
%TD*%
D24*
%TO.C,U3*%
X37991665Y25954151D03*
X37041665Y25954151D03*
X36091665Y25954151D03*
X36091665Y23679151D03*
X37041665Y23679151D03*
X37991665Y23679151D03*
%TD*%
D25*
%TO.C,SW1*%
X30620000Y63070000D03*
X30620000Y53890000D03*
%TD*%
D18*
%TO.C,C5*%
X13040000Y23610000D03*
X14590000Y23610000D03*
%TD*%
D26*
%TO.C,U6*%
X6765000Y54585000D03*
X8035000Y54585000D03*
X9305000Y54585000D03*
X10575000Y54585000D03*
X10575000Y59535000D03*
X9305000Y59535000D03*
X8035000Y59535000D03*
X6765000Y59535000D03*
%TD*%
D18*
%TO.C,C15*%
X22720000Y25510000D03*
X24270000Y25510000D03*
%TD*%
%TO.C,C12*%
X10185000Y17450000D03*
X11735000Y17450000D03*
%TD*%
D22*
%TO.C,R28*%
X37790000Y46885000D03*
X37790000Y45235000D03*
%TD*%
D11*
%TO.C,R9*%
X37051665Y20401651D03*
X37051665Y22051651D03*
%TD*%
%TO.C,R36*%
X20950000Y17795000D03*
X20950000Y19445000D03*
%TD*%
D27*
%TO.C,FB2*%
X11742500Y14400000D03*
X10167500Y14400000D03*
%TD*%
D28*
%TO.C,D7*%
X20950000Y14812500D03*
X20950000Y16387500D03*
%TD*%
D18*
%TO.C,C8*%
X13040000Y25130000D03*
X14590000Y25130000D03*
%TD*%
D22*
%TO.C,R35*%
X23990000Y22465000D03*
X23990000Y20815000D03*
%TD*%
D19*
%TO.C,C50*%
X24975000Y48200000D03*
X23425000Y48200000D03*
%TD*%
D29*
%TO.C,J5*%
X24265000Y65220000D03*
X23015000Y65220000D03*
D30*
X21165000Y68420000D03*
X26115000Y68420000D03*
%TD*%
D22*
%TO.C,R31*%
X33850000Y27545000D03*
X33850000Y25895000D03*
%TD*%
D31*
%TO.C,C55*%
X6625000Y28910000D03*
X6625000Y27360000D03*
%TD*%
D11*
%TO.C,R19*%
X43980000Y17583750D03*
X43980000Y19233750D03*
%TD*%
D19*
%TO.C,C7*%
X18395000Y17830000D03*
X16845000Y17830000D03*
%TD*%
%TO.C,C34*%
X33730000Y45310000D03*
X32180000Y45310000D03*
%TD*%
D29*
%TO.C,J7*%
X17035000Y65220000D03*
X15785000Y65220000D03*
X14535000Y65220000D03*
X13285000Y65220000D03*
D30*
X11435000Y68420000D03*
X18885000Y68420000D03*
%TD*%
D13*
%TO.C,R27*%
X19955000Y61530000D03*
X21605000Y61530000D03*
%TD*%
D22*
%TO.C,R33*%
X20950000Y22465000D03*
X20950000Y20815000D03*
%TD*%
D15*
%TO.C,C31*%
X23060000Y61515000D03*
X23060000Y63065000D03*
%TD*%
D28*
%TO.C,D8*%
X22470000Y14812500D03*
X22470000Y16387500D03*
%TD*%
%TO.C,D9*%
X23990000Y14812500D03*
X23990000Y16387500D03*
%TD*%
D11*
%TO.C,R37*%
X22470000Y17795000D03*
X22470000Y19445000D03*
%TD*%
D22*
%TO.C,R32*%
X32330000Y27545000D03*
X32330000Y25895000D03*
%TD*%
D19*
%TO.C,C32*%
X9435000Y52570000D03*
X7885000Y52570000D03*
%TD*%
D32*
%TO.C,Y1*%
X7890000Y21990000D03*
X10090000Y21990000D03*
X10090000Y23690000D03*
X7890000Y23690000D03*
%TD*%
D13*
%TO.C,R29*%
X35445000Y43790000D03*
X37095000Y43790000D03*
%TD*%
D33*
%TO.C,U2*%
X16720000Y22121750D03*
X16220000Y22121750D03*
X15720000Y22121750D03*
X15220000Y22121750D03*
X14720000Y22121750D03*
X14720000Y19307750D03*
X15220000Y19307750D03*
X15720000Y19307750D03*
X16220000Y19307750D03*
X16720000Y19307750D03*
D34*
X15720000Y20714750D03*
%TD*%
D11*
%TO.C,R39*%
X42450000Y23625000D03*
X42450000Y25275000D03*
%TD*%
D35*
%TO.C,L4*%
X26246665Y9006651D03*
X27516665Y9006651D03*
X28786665Y9006651D03*
X30056665Y9006651D03*
X31326665Y9006651D03*
X32596665Y9006651D03*
X33866665Y9006651D03*
X35136665Y9006651D03*
X36406665Y9006651D03*
X37676665Y9006651D03*
X38946665Y9006651D03*
X40216665Y9006651D03*
X40216665Y18056651D03*
X38946665Y18056651D03*
X37676665Y18056651D03*
X36406665Y18056651D03*
X35136665Y18056651D03*
X33866665Y18056651D03*
X32596665Y18056651D03*
X31326665Y18056651D03*
X30056665Y18056651D03*
X28786665Y18056651D03*
X27516665Y18056651D03*
X26246665Y18056651D03*
%TD*%
D36*
%TO.C,J6*%
X5030000Y14390000D03*
X5030000Y13140000D03*
X5030000Y11890000D03*
D37*
X1830000Y10040000D03*
X1830000Y16240000D03*
%TD*%
D13*
%TO.C,R47*%
X24805000Y44780000D03*
X26455000Y44780000D03*
%TD*%
D18*
%TO.C,C44*%
X40575000Y34950000D03*
X42125000Y34950000D03*
%TD*%
D28*
%TO.C,D1*%
X42450000Y17623750D03*
X42450000Y19198750D03*
%TD*%
D38*
%TO.C,CN1*%
X39234165Y5359151D03*
X38234165Y5359151D03*
X37234165Y5359151D03*
X36234165Y5359151D03*
X35234165Y5359151D03*
D39*
X34084165Y1459151D03*
X40384165Y1459151D03*
%TD*%
D24*
%TO.C,U4*%
X30511665Y25951651D03*
X29561665Y25951651D03*
X28611665Y25951651D03*
X28611665Y23676651D03*
X29561665Y23676651D03*
X30511665Y23676651D03*
%TD*%
D19*
%TO.C,C54*%
X32175000Y51730000D03*
X30625000Y51730000D03*
%TD*%
%TO.C,C13*%
X21250000Y25510000D03*
X19700000Y25510000D03*
%TD*%
D23*
%TO.C,X1*%
X42890000Y28070000D03*
X42890000Y30270000D03*
X41190000Y30270000D03*
X41190000Y28070000D03*
%TD*%
D13*
%TO.C,R26*%
X7835000Y61560000D03*
X9485000Y61560000D03*
%TD*%
D31*
%TO.C,C46*%
X39550000Y28065000D03*
X39550000Y26515000D03*
%TD*%
D22*
%TO.C,R17*%
X42450000Y22256250D03*
X42450000Y20606250D03*
%TD*%
D19*
%TO.C,C9*%
X18240000Y27030000D03*
X16690000Y27030000D03*
%TD*%
%TO.C,C18*%
X8710000Y14410000D03*
X7160000Y14410000D03*
%TD*%
D26*
%TO.C,U7*%
X18885000Y54565000D03*
X20155000Y54565000D03*
X21425000Y54565000D03*
X22695000Y54565000D03*
X22695000Y59515000D03*
X21425000Y59515000D03*
X20155000Y59515000D03*
X18885000Y59515000D03*
%TD*%
D19*
%TO.C,C10*%
X14750000Y14410000D03*
X13200000Y14410000D03*
%TD*%
D15*
%TO.C,C56*%
X6625000Y30380000D03*
X6625000Y31930000D03*
%TD*%
D40*
%TO.C,D4*%
X700000Y8240000D03*
X2275000Y8240000D03*
%TD*%
D11*
%TO.C,R10*%
X29556665Y20399151D03*
X29556665Y22049151D03*
%TD*%
D10*
%TO.C,R46*%
X5925000Y39470000D03*
X4275000Y39470000D03*
%TD*%
D38*
%TO.C,CN2*%
X31234165Y5359151D03*
X30234165Y5359151D03*
X29234165Y5359151D03*
X28234165Y5359151D03*
X27234165Y5359151D03*
D39*
X26084165Y1459151D03*
X32384165Y1459151D03*
%TD*%
D18*
%TO.C,C14*%
X10185000Y15930000D03*
X11735000Y15930000D03*
%TD*%
%TO.C,C63*%
X24855000Y46310000D03*
X26405000Y46310000D03*
%TD*%
D19*
%TO.C,C16*%
X8710000Y15930000D03*
X7160000Y15930000D03*
%TD*%
D22*
%TO.C,R5*%
X16715000Y25585000D03*
X16715000Y23935000D03*
%TD*%
D31*
%TO.C,C35*%
X25070000Y35315000D03*
X25070000Y33765000D03*
%TD*%
D22*
%TO.C,R42*%
X33730000Y48405000D03*
X33730000Y46755000D03*
%TD*%
%TO.C,R43*%
X36270000Y46885000D03*
X36270000Y45235000D03*
%TD*%
D10*
%TO.C,R48*%
X26455000Y43260000D03*
X24805000Y43260000D03*
%TD*%
D15*
%TO.C,C33*%
X30690000Y43795000D03*
X30690000Y45345000D03*
%TD*%
D28*
%TO.C,D6*%
X12160000Y55462500D03*
X12160000Y57037500D03*
%TD*%
D22*
%TO.C,R34*%
X22470000Y22465000D03*
X22470000Y20815000D03*
%TD*%
D29*
%TO.C,J4*%
X7305000Y65210000D03*
X6055000Y65210000D03*
D30*
X4205000Y68410000D03*
X9155000Y68410000D03*
%TD*%
D13*
%TO.C,R23*%
X3692500Y8240000D03*
X5342500Y8240000D03*
%TD*%
D40*
%TO.C,FB1*%
X19692500Y27030000D03*
X21267500Y27030000D03*
%TD*%
D11*
%TO.C,R24*%
X24280000Y58435000D03*
X24280000Y60085000D03*
%TD*%
D41*
%TO.C,J8*%
X11145000Y8245000D03*
X11945000Y8245000D03*
D42*
X13145000Y8245000D03*
X14145000Y8245000D03*
X14645000Y8245000D03*
X15645000Y8245000D03*
D41*
X16845000Y8245000D03*
X17645000Y8245000D03*
X17645000Y8245000D03*
X16845000Y8245000D03*
D42*
X16145000Y8245000D03*
X15145000Y8245000D03*
X13645000Y8245000D03*
X12645000Y8245000D03*
D41*
X11945000Y8245000D03*
X11145000Y8245000D03*
%TD*%
D11*
%TO.C,R7*%
X14725000Y15855000D03*
X14725000Y17505000D03*
%TD*%
D10*
%TO.C,R4*%
X18290000Y28550000D03*
X16640000Y28550000D03*
%TD*%
%TO.C,R41*%
X37095000Y48330000D03*
X35445000Y48330000D03*
%TD*%
D43*
%TO.C,U5*%
X9360000Y33275000D03*
X9860000Y33275000D03*
X10360000Y33275000D03*
X10860000Y33275000D03*
X11360000Y33275000D03*
X11860000Y33275000D03*
X12360000Y33275000D03*
X12860000Y33275000D03*
X13360000Y33275000D03*
X13860000Y33275000D03*
X14360000Y33275000D03*
X14860000Y33275000D03*
X15360000Y33275000D03*
X15860000Y33275000D03*
X16360000Y33275000D03*
X16860000Y33275000D03*
X17360000Y33275000D03*
X17860000Y33275000D03*
X18360000Y33275000D03*
X18860000Y33275000D03*
X19360000Y33275000D03*
X19860000Y33275000D03*
X20360000Y33275000D03*
X20860000Y33275000D03*
X21360000Y33275000D03*
D44*
X23035000Y34950000D03*
X23035000Y35450000D03*
X23035000Y35950000D03*
X23035000Y36450000D03*
X23035000Y36950000D03*
X23035000Y37450000D03*
X23035000Y37950000D03*
X23035000Y38450000D03*
X23035000Y38950000D03*
X23035000Y39450000D03*
X23035000Y39950000D03*
X23035000Y40450000D03*
X23035000Y40950000D03*
X23035000Y41450000D03*
X23035000Y41950000D03*
X23035000Y42450000D03*
X23035000Y42950000D03*
X23035000Y43450000D03*
X23035000Y43950000D03*
X23035000Y44450000D03*
X23035000Y44950000D03*
X23035000Y45450000D03*
X23035000Y45950000D03*
X23035000Y46450000D03*
X23035000Y46950000D03*
D43*
X21360000Y48625000D03*
X20860000Y48625000D03*
X20360000Y48625000D03*
X19860000Y48625000D03*
X19360000Y48625000D03*
X18860000Y48625000D03*
X18360000Y48625000D03*
X17860000Y48625000D03*
X17360000Y48625000D03*
X16860000Y48625000D03*
X16360000Y48625000D03*
X15860000Y48625000D03*
X15360000Y48625000D03*
X14860000Y48625000D03*
X14360000Y48625000D03*
X13860000Y48625000D03*
X13360000Y48625000D03*
X12860000Y48625000D03*
X12360000Y48625000D03*
X11860000Y48625000D03*
X11360000Y48625000D03*
X10860000Y48625000D03*
X10360000Y48625000D03*
X9860000Y48625000D03*
X9360000Y48625000D03*
D44*
X7685000Y46950000D03*
X7685000Y46450000D03*
X7685000Y45950000D03*
X7685000Y45450000D03*
X7685000Y44950000D03*
X7685000Y44450000D03*
X7685000Y43950000D03*
X7685000Y43450000D03*
X7685000Y42950000D03*
X7685000Y42450000D03*
X7685000Y41950000D03*
X7685000Y41450000D03*
X7685000Y40950000D03*
X7685000Y40450000D03*
X7685000Y39950000D03*
X7685000Y39450000D03*
X7685000Y38950000D03*
X7685000Y38450000D03*
X7685000Y37950000D03*
X7685000Y37450000D03*
X7685000Y36950000D03*
X7685000Y36450000D03*
X7685000Y35950000D03*
X7685000Y35450000D03*
X7685000Y34950000D03*
%TD*%
D19*
%TO.C,C28*%
X8255000Y25330000D03*
X6705000Y25330000D03*
%TD*%
D18*
%TO.C,C27*%
X9725000Y25330000D03*
X11275000Y25330000D03*
%TD*%
D19*
%TO.C,C11*%
X21250000Y23990000D03*
X19700000Y23990000D03*
%TD*%
D45*
%TO.C,U8*%
X27255000Y39450000D03*
X27255000Y39050000D03*
X27255000Y38650000D03*
X27255000Y38250000D03*
X27255000Y37850000D03*
X27255000Y37450000D03*
X27255000Y37050000D03*
X27255000Y36650000D03*
X27255000Y36250000D03*
X27255000Y35850000D03*
X27255000Y35450000D03*
X27255000Y35050000D03*
X27255000Y34650000D03*
X27255000Y34250000D03*
X27255000Y33850000D03*
X27255000Y33450000D03*
X27255000Y33050000D03*
X27255000Y32650000D03*
X27255000Y32250000D03*
X27255000Y31850000D03*
D46*
X29205000Y29900000D03*
X29605000Y29900000D03*
X30005000Y29900000D03*
X30405000Y29900000D03*
X30805000Y29900000D03*
X31205000Y29900000D03*
X31605000Y29900000D03*
X32005000Y29900000D03*
X32405000Y29900000D03*
X32805000Y29900000D03*
X33205000Y29900000D03*
X33605000Y29900000D03*
X34005000Y29900000D03*
X34405000Y29900000D03*
X34805000Y29900000D03*
X35205000Y29900000D03*
X35605000Y29900000D03*
X36005000Y29900000D03*
X36405000Y29900000D03*
X36805000Y29900000D03*
D45*
X38755000Y31850000D03*
X38755000Y32250000D03*
X38755000Y32650000D03*
X38755000Y33050000D03*
X38755000Y33450000D03*
X38755000Y33850000D03*
X38755000Y34250000D03*
X38755000Y34650000D03*
X38755000Y35050000D03*
X38755000Y35450000D03*
X38755000Y35850000D03*
X38755000Y36250000D03*
X38755000Y36650000D03*
X38755000Y37050000D03*
X38755000Y37450000D03*
X38755000Y37850000D03*
X38755000Y38250000D03*
X38755000Y38650000D03*
X38755000Y39050000D03*
X38755000Y39450000D03*
D46*
X36805000Y41400000D03*
X36405000Y41400000D03*
X36005000Y41400000D03*
X35605000Y41400000D03*
X35205000Y41400000D03*
X34805000Y41400000D03*
X34405000Y41400000D03*
X34005000Y41400000D03*
X33605000Y41400000D03*
X33205000Y41400000D03*
X32805000Y41400000D03*
X32405000Y41400000D03*
X32005000Y41400000D03*
X31605000Y41400000D03*
X31205000Y41400000D03*
X30805000Y41400000D03*
X30405000Y41400000D03*
X30005000Y41400000D03*
X29605000Y41400000D03*
X29205000Y41400000D03*
D47*
X33005000Y35650000D03*
%TD*%
D13*
%TO.C,R44*%
X4275000Y37950000D03*
X5925000Y37950000D03*
%TD*%
D11*
%TO.C,R38*%
X23990000Y17795000D03*
X23990000Y19445000D03*
%TD*%
D13*
%TO.C,R50*%
X8155000Y26860000D03*
X9805000Y26860000D03*
%TD*%
D28*
%TO.C,D2*%
X45510000Y17621250D03*
X45510000Y19196250D03*
%TD*%
D11*
%TO.C,R40*%
X45510000Y23635000D03*
X45510000Y25285000D03*
%TD*%
D28*
%TO.C,D5*%
X24280000Y55442500D03*
X24280000Y57017500D03*
%TD*%
D48*
%TO.C,C20*%
X21009165Y6849151D03*
X23959165Y6849151D03*
%TD*%
D19*
%TO.C,C6*%
X18395000Y16310000D03*
X16845000Y16310000D03*
%TD*%
M02*
