%TF.GenerationSoftware,KiCad,Pcbnew,(6.0.1)*%
%TF.CreationDate,2023-04-01T17:19:45+08:00*%
%TF.ProjectId,EtherCAT2XXX,45746865-7243-4415-9432-5858582e6b69,rev?*%
%TF.SameCoordinates,Original*%
%TF.FileFunction,Paste,Bot*%
%TF.FilePolarity,Positive*%
%FSLAX46Y46*%
G04 Gerber Fmt 4.6, Leading zero omitted, Abs format (unit mm)*
G04 Created by KiCad (PCBNEW (6.0.1)) date 2023-04-01 17:19:45*
%MOMM*%
%LPD*%
G01*
G04 APERTURE LIST*
G04 Aperture macros list*
%AMRoundRect*
0 Rectangle with rounded corners*
0 $1 Rounding radius*
0 $2 $3 $4 $5 $6 $7 $8 $9 X,Y pos of 4 corners*
0 Add a 4 corners polygon primitive as box body*
4,1,4,$2,$3,$4,$5,$6,$7,$8,$9,$2,$3,0*
0 Add four circle primitives for the rounded corners*
1,1,$1+$1,$2,$3*
1,1,$1+$1,$4,$5*
1,1,$1+$1,$6,$7*
1,1,$1+$1,$8,$9*
0 Add four rect primitives between the rounded corners*
20,1,$1+$1,$2,$3,$4,$5,0*
20,1,$1+$1,$4,$5,$6,$7,0*
20,1,$1+$1,$6,$7,$8,$9,0*
20,1,$1+$1,$8,$9,$2,$3,0*%
G04 Aperture macros list end*
%ADD10RoundRect,0.225000X0.250000X-0.225000X0.250000X0.225000X-0.250000X0.225000X-0.250000X-0.225000X0*%
%ADD11RoundRect,0.250000X0.325000X0.650000X-0.325000X0.650000X-0.325000X-0.650000X0.325000X-0.650000X0*%
%ADD12RoundRect,0.225000X-0.250000X0.225000X-0.250000X-0.225000X0.250000X-0.225000X0.250000X0.225000X0*%
%ADD13RoundRect,0.225000X-0.225000X-0.250000X0.225000X-0.250000X0.225000X0.250000X-0.225000X0.250000X0*%
%ADD14RoundRect,0.250000X0.312500X0.625000X-0.312500X0.625000X-0.312500X-0.625000X0.312500X-0.625000X0*%
%ADD15RoundRect,0.200000X-0.275000X0.200000X-0.275000X-0.200000X0.275000X-0.200000X0.275000X0.200000X0*%
%ADD16RoundRect,0.200000X0.200000X0.275000X-0.200000X0.275000X-0.200000X-0.275000X0.200000X-0.275000X0*%
%ADD17RoundRect,0.225000X0.225000X0.250000X-0.225000X0.250000X-0.225000X-0.250000X0.225000X-0.250000X0*%
%ADD18RoundRect,0.150000X0.700000X-0.150000X0.700000X0.150000X-0.700000X0.150000X-0.700000X-0.150000X0*%
%ADD19RoundRect,0.250000X1.100000X-0.250000X1.100000X0.250000X-1.100000X0.250000X-1.100000X-0.250000X0*%
%ADD20RoundRect,0.200000X-0.200000X-0.275000X0.200000X-0.275000X0.200000X0.275000X-0.200000X0.275000X0*%
%ADD21RoundRect,0.218750X-0.218750X-0.256250X0.218750X-0.256250X0.218750X0.256250X-0.218750X0.256250X0*%
G04 APERTURE END LIST*
D10*
%TO.C,C42*%
X27980000Y27835000D03*
X27980000Y29385000D03*
%TD*%
D11*
%TO.C,C21*%
X23959165Y6849151D03*
X21009165Y6849151D03*
%TD*%
D12*
%TO.C,C43*%
X27670000Y36745000D03*
X27670000Y35195000D03*
%TD*%
D13*
%TO.C,C64*%
X40575000Y34950000D03*
X42125000Y34950000D03*
%TD*%
D12*
%TO.C,C49*%
X36580000Y35085000D03*
X36580000Y33535000D03*
%TD*%
D10*
%TO.C,C39*%
X31070000Y28875000D03*
X31070000Y30425000D03*
%TD*%
D13*
%TO.C,C36*%
X30775000Y41760000D03*
X32325000Y41760000D03*
%TD*%
D14*
%TO.C,R16*%
X23946665Y4509151D03*
X21021665Y4509151D03*
%TD*%
D10*
%TO.C,C22*%
X37814165Y13804151D03*
X37814165Y15354151D03*
%TD*%
D15*
%TO.C,R13*%
X36284165Y6164151D03*
X36284165Y4514151D03*
%TD*%
D16*
%TO.C,R45*%
X18525000Y37030000D03*
X16875000Y37030000D03*
%TD*%
D12*
%TO.C,C45*%
X38730000Y37745000D03*
X38730000Y36195000D03*
%TD*%
D17*
%TO.C,C53*%
X18475000Y38550000D03*
X16925000Y38550000D03*
%TD*%
D18*
%TO.C,J2*%
X5050000Y52050000D03*
X5050000Y53300000D03*
X5050000Y54550000D03*
D19*
X1850000Y56400000D03*
X1850000Y50200000D03*
%TD*%
D17*
%TO.C,C52*%
X18475000Y40070000D03*
X16925000Y40070000D03*
%TD*%
D10*
%TO.C,C57*%
X15420000Y34850000D03*
X15420000Y36400000D03*
%TD*%
%TO.C,C60*%
X9730000Y34200000D03*
X9730000Y35750000D03*
%TD*%
D15*
%TO.C,R14*%
X30194165Y6164151D03*
X30194165Y4514151D03*
%TD*%
D20*
%TO.C,R22*%
X3675000Y58190000D03*
X5325000Y58190000D03*
%TD*%
D17*
%TO.C,C47*%
X28080000Y31920000D03*
X26530000Y31920000D03*
%TD*%
D10*
%TO.C,C25*%
X28684165Y13799151D03*
X28684165Y15349151D03*
%TD*%
%TO.C,C23*%
X36294165Y13804151D03*
X36294165Y15354151D03*
%TD*%
D15*
%TO.C,R30*%
X33850000Y27545000D03*
X33850000Y25895000D03*
%TD*%
D13*
%TO.C,C58*%
X8645000Y46610000D03*
X10195000Y46610000D03*
%TD*%
D12*
%TO.C,C65*%
X20370000Y35975000D03*
X20370000Y34425000D03*
%TD*%
D18*
%TO.C,J3*%
X5050000Y42305000D03*
X5050000Y43555000D03*
X5050000Y44805000D03*
X5050000Y46055000D03*
D19*
X1850000Y40455000D03*
X1850000Y47905000D03*
%TD*%
D15*
%TO.C,R15*%
X28674165Y6164151D03*
X28674165Y4514151D03*
%TD*%
D10*
%TO.C,C37*%
X33800000Y39870000D03*
X33800000Y41420000D03*
%TD*%
D17*
%TO.C,C41*%
X34215000Y30060000D03*
X32665000Y30060000D03*
%TD*%
D10*
%TO.C,C62*%
X12930000Y34845000D03*
X12930000Y36395000D03*
%TD*%
%TO.C,C24*%
X30204165Y13804151D03*
X30204165Y15354151D03*
%TD*%
%TO.C,C40*%
X35710000Y29395000D03*
X35710000Y30945000D03*
%TD*%
D17*
%TO.C,C48*%
X31095000Y31920000D03*
X29545000Y31920000D03*
%TD*%
D21*
%TO.C,D3*%
X692500Y58190000D03*
X2267500Y58190000D03*
%TD*%
D17*
%TO.C,C51*%
X13210000Y46610000D03*
X11660000Y46610000D03*
%TD*%
D15*
%TO.C,R12*%
X37804165Y6164151D03*
X37804165Y4514151D03*
%TD*%
M02*
