%TF.GenerationSoftware,KiCad,Pcbnew,(6.0.1)*%
%TF.CreationDate,2023-04-01T17:19:45+08:00*%
%TF.ProjectId,EtherCAT2XXX,45746865-7243-4415-9432-5858582e6b69,rev?*%
%TF.SameCoordinates,Original*%
%TF.FileFunction,Legend,Top*%
%TF.FilePolarity,Positive*%
%FSLAX46Y46*%
G04 Gerber Fmt 4.6, Leading zero omitted, Abs format (unit mm)*
G04 Created by KiCad (PCBNEW (6.0.1)) date 2023-04-01 17:19:45*
%MOMM*%
%LPD*%
G01*
G04 APERTURE LIST*
%ADD10C,0.150000*%
%ADD11C,0.125000*%
%ADD12C,0.120000*%
%ADD13C,0.152000*%
%ADD14C,0.254000*%
G04 APERTURE END LIST*
D10*
X45700000Y60400000D02*
X45700000Y65600000D01*
X33500000Y63000000D02*
X45700000Y63000000D01*
X33500000Y65600000D02*
X33500000Y60400000D01*
X33500000Y61600000D02*
X45700000Y61600000D01*
X33500000Y60400000D02*
X45700000Y60400000D01*
X33500000Y64300000D02*
X45700000Y64300000D01*
X40300000Y65600000D02*
X40300000Y60400000D01*
X45700000Y65600000D02*
X33500000Y65600000D01*
X36800000Y65600000D02*
X36800000Y60400000D01*
X41151428Y23755715D02*
X41551428Y23755715D01*
X40922857Y23612858D02*
X41351428Y23470000D01*
X41351428Y23841429D01*
X41494285Y24070000D02*
X41522857Y24098572D01*
X41551428Y24070000D01*
X41522857Y24041429D01*
X41494285Y24070000D01*
X41551428Y24070000D01*
X40951428Y24298572D02*
X40951428Y24698572D01*
X41551428Y24441429D01*
X41551428Y24927143D02*
X40951428Y24927143D01*
X41551428Y25270000D02*
X41208571Y25012858D01*
X40951428Y25270000D02*
X41294285Y24927143D01*
X25821428Y55568572D02*
X25821428Y55282858D01*
X25221428Y55282858D01*
X25507142Y55768572D02*
X25507142Y55968572D01*
X25821428Y56054286D02*
X25821428Y55768572D01*
X25221428Y55768572D01*
X25221428Y56054286D01*
X25821428Y56311429D02*
X25221428Y56311429D01*
X25221428Y56454286D01*
X25250000Y56540000D01*
X25307142Y56597143D01*
X25364285Y56625715D01*
X25478571Y56654286D01*
X25564285Y56654286D01*
X25678571Y56625715D01*
X25735714Y56597143D01*
X25792857Y56540000D01*
X25821428Y56454286D01*
X25821428Y56311429D01*
X25221428Y56854286D02*
X25221428Y57225715D01*
X25450000Y57025715D01*
X25450000Y57111429D01*
X25478571Y57168572D01*
X25507142Y57197143D01*
X25564285Y57225715D01*
X25707142Y57225715D01*
X25764285Y57197143D01*
X25792857Y57168572D01*
X25821428Y57111429D01*
X25821428Y56940000D01*
X25792857Y56882858D01*
X25764285Y56854286D01*
X928571Y6718572D02*
X642857Y6718572D01*
X642857Y7318572D01*
X1128571Y7032858D02*
X1328571Y7032858D01*
X1414285Y6718572D02*
X1128571Y6718572D01*
X1128571Y7318572D01*
X1414285Y7318572D01*
X1671428Y6718572D02*
X1671428Y7318572D01*
X1814285Y7318572D01*
X1900000Y7290000D01*
X1957142Y7232858D01*
X1985714Y7175715D01*
X2014285Y7061429D01*
X2014285Y6975715D01*
X1985714Y6861429D01*
X1957142Y6804286D01*
X1900000Y6747143D01*
X1814285Y6718572D01*
X1671428Y6718572D01*
X2242857Y7261429D02*
X2271428Y7290000D01*
X2328571Y7318572D01*
X2471428Y7318572D01*
X2528571Y7290000D01*
X2557142Y7261429D01*
X2585714Y7204286D01*
X2585714Y7147143D01*
X2557142Y7061429D01*
X2214285Y6718572D01*
X2585714Y6718572D01*
X13721428Y55518572D02*
X13721428Y55232858D01*
X13121428Y55232858D01*
X13407142Y55718572D02*
X13407142Y55918572D01*
X13721428Y56004286D02*
X13721428Y55718572D01*
X13121428Y55718572D01*
X13121428Y56004286D01*
X13721428Y56261429D02*
X13121428Y56261429D01*
X13121428Y56404286D01*
X13150000Y56490000D01*
X13207142Y56547143D01*
X13264285Y56575715D01*
X13378571Y56604286D01*
X13464285Y56604286D01*
X13578571Y56575715D01*
X13635714Y56547143D01*
X13692857Y56490000D01*
X13721428Y56404286D01*
X13721428Y56261429D01*
X13321428Y57118572D02*
X13721428Y57118572D01*
X13092857Y56975715D02*
X13521428Y56832858D01*
X13521428Y57204286D01*
X29741428Y45028572D02*
X29798571Y45028572D01*
X29855714Y45000000D01*
X29884285Y44971429D01*
X29912857Y44914286D01*
X29941428Y44800000D01*
X29941428Y44657143D01*
X29912857Y44542858D01*
X29884285Y44485715D01*
X29855714Y44457143D01*
X29798571Y44428572D01*
X29741428Y44428572D01*
X29684285Y44457143D01*
X29655714Y44485715D01*
X29627142Y44542858D01*
X29598571Y44657143D01*
X29598571Y44800000D01*
X29627142Y44914286D01*
X29655714Y44971429D01*
X29684285Y45000000D01*
X29741428Y45028572D01*
X8031428Y30334286D02*
X8031428Y29991429D01*
X8031428Y30162858D02*
X7431428Y30162858D01*
X7517142Y30105715D01*
X7574285Y30048572D01*
X7602857Y29991429D01*
X7431428Y30705715D02*
X7431428Y30762858D01*
X7460000Y30820000D01*
X7488571Y30848572D01*
X7545714Y30877143D01*
X7660000Y30905715D01*
X7802857Y30905715D01*
X7917142Y30877143D01*
X7974285Y30848572D01*
X8002857Y30820000D01*
X8031428Y30762858D01*
X8031428Y30705715D01*
X8002857Y30648572D01*
X7974285Y30620000D01*
X7917142Y30591429D01*
X7802857Y30562858D01*
X7660000Y30562858D01*
X7545714Y30591429D01*
X7488571Y30620000D01*
X7460000Y30648572D01*
X7431428Y30705715D01*
X7631428Y31162858D02*
X8231428Y31162858D01*
X7660000Y31162858D02*
X7631428Y31220000D01*
X7631428Y31334286D01*
X7660000Y31391429D01*
X7688571Y31420000D01*
X7745714Y31448572D01*
X7917142Y31448572D01*
X7974285Y31420000D01*
X8002857Y31391429D01*
X8031428Y31334286D01*
X8031428Y31220000D01*
X8002857Y31162858D01*
X32281428Y23615715D02*
X32681428Y23615715D01*
X32052857Y23472858D02*
X32481428Y23330000D01*
X32481428Y23701429D01*
X32624285Y23930000D02*
X32652857Y23958572D01*
X32681428Y23930000D01*
X32652857Y23901429D01*
X32624285Y23930000D01*
X32681428Y23930000D01*
X32081428Y24158572D02*
X32081428Y24558572D01*
X32681428Y24301429D01*
X32681428Y24787143D02*
X32081428Y24787143D01*
X32681428Y25130000D02*
X32338571Y24872858D01*
X32081428Y25130000D02*
X32424285Y24787143D01*
X18951428Y18111429D02*
X18980000Y18140000D01*
X19037142Y18168572D01*
X19180000Y18168572D01*
X19237142Y18140000D01*
X19265714Y18111429D01*
X19294285Y18054286D01*
X19294285Y17997143D01*
X19265714Y17911429D01*
X18922857Y17568572D01*
X19294285Y17568572D01*
X19522857Y18111429D02*
X19551428Y18140000D01*
X19608571Y18168572D01*
X19751428Y18168572D01*
X19808571Y18140000D01*
X19837142Y18111429D01*
X19865714Y18054286D01*
X19865714Y17997143D01*
X19837142Y17911429D01*
X19494285Y17568572D01*
X19865714Y17568572D01*
X20380000Y17968572D02*
X20380000Y17568572D01*
X20122857Y17968572D02*
X20122857Y17654286D01*
X20151428Y17597143D01*
X20208571Y17568572D01*
X20294285Y17568572D01*
X20351428Y17597143D01*
X20380000Y17625715D01*
X42004285Y16032322D02*
X42004285Y16632322D01*
X42290000Y16032322D02*
X42290000Y16632322D01*
X42632857Y16032322D01*
X42632857Y16632322D01*
X44861428Y16632322D02*
X44975714Y16632322D01*
X45032857Y16603750D01*
X45090000Y16546608D01*
X45118571Y16432322D01*
X45118571Y16232322D01*
X45090000Y16118036D01*
X45032857Y16060893D01*
X44975714Y16032322D01*
X44861428Y16032322D01*
X44804285Y16060893D01*
X44747142Y16118036D01*
X44718571Y16232322D01*
X44718571Y16432322D01*
X44747142Y16546608D01*
X44804285Y16603750D01*
X44861428Y16632322D01*
X45375714Y16632322D02*
X45375714Y16146608D01*
X45404285Y16089465D01*
X45432857Y16060893D01*
X45490000Y16032322D01*
X45604285Y16032322D01*
X45661428Y16060893D01*
X45690000Y16089465D01*
X45718571Y16146608D01*
X45718571Y16632322D01*
X45918571Y16632322D02*
X46261428Y16632322D01*
X46090000Y16032322D02*
X46090000Y16632322D01*
X1328571Y68768715D02*
X1300000Y68740143D01*
X1214285Y68711572D01*
X1157142Y68711572D01*
X1071428Y68740143D01*
X1014285Y68797286D01*
X985714Y68854429D01*
X957142Y68968715D01*
X957142Y69054429D01*
X985714Y69168715D01*
X1014285Y69225858D01*
X1071428Y69283000D01*
X1157142Y69311572D01*
X1214285Y69311572D01*
X1300000Y69283000D01*
X1328571Y69254429D01*
X1557142Y68883000D02*
X1842857Y68883000D01*
X1500000Y68711572D02*
X1700000Y69311572D01*
X1900000Y68711572D01*
X2100000Y68711572D02*
X2100000Y69311572D01*
X2442857Y68711572D01*
X2442857Y69311572D01*
X2842857Y69311572D02*
X2900000Y69311572D01*
X2957142Y69283000D01*
X2985714Y69254429D01*
X3014285Y69197286D01*
X3042857Y69083000D01*
X3042857Y68940143D01*
X3014285Y68825858D01*
X2985714Y68768715D01*
X2957142Y68740143D01*
X2900000Y68711572D01*
X2842857Y68711572D01*
X2785714Y68740143D01*
X2757142Y68768715D01*
X2728571Y68825858D01*
X2700000Y68940143D01*
X2700000Y69083000D01*
X2728571Y69197286D01*
X2757142Y69254429D01*
X2785714Y69283000D01*
X2842857Y69311572D01*
X1357142Y67745572D02*
X1357142Y68345572D01*
X1357142Y68059858D02*
X1700000Y68059858D01*
X1700000Y67745572D02*
X1700000Y68345572D01*
X2728571Y67745572D02*
X2442857Y67745572D01*
X2442857Y68345572D01*
X6221428Y26751429D02*
X6250000Y26780000D01*
X6307142Y26808572D01*
X6450000Y26808572D01*
X6507142Y26780000D01*
X6535714Y26751429D01*
X6564285Y26694286D01*
X6564285Y26637143D01*
X6535714Y26551429D01*
X6192857Y26208572D01*
X6564285Y26208572D01*
X6792857Y26751429D02*
X6821428Y26780000D01*
X6878571Y26808572D01*
X7021428Y26808572D01*
X7078571Y26780000D01*
X7107142Y26751429D01*
X7135714Y26694286D01*
X7135714Y26637143D01*
X7107142Y26551429D01*
X6764285Y26208572D01*
X7135714Y26208572D01*
X7392857Y26608572D02*
X7392857Y26008572D01*
X7392857Y26580000D02*
X7450000Y26608572D01*
X7564285Y26608572D01*
X7621428Y26580000D01*
X7650000Y26551429D01*
X7678571Y26494286D01*
X7678571Y26322858D01*
X7650000Y26265715D01*
X7621428Y26237143D01*
X7564285Y26208572D01*
X7450000Y26208572D01*
X7392857Y26237143D01*
X43971428Y20578572D02*
X44028571Y20578572D01*
X44085714Y20550000D01*
X44114285Y20521429D01*
X44142857Y20464286D01*
X44171428Y20350000D01*
X44171428Y20207143D01*
X44142857Y20092858D01*
X44114285Y20035715D01*
X44085714Y20007143D01*
X44028571Y19978572D01*
X43971428Y19978572D01*
X43914285Y20007143D01*
X43885714Y20035715D01*
X43857142Y20092858D01*
X43828571Y20207143D01*
X43828571Y20350000D01*
X43857142Y20464286D01*
X43885714Y20521429D01*
X43914285Y20550000D01*
X43971428Y20578572D01*
X19781428Y21345715D02*
X19810000Y21317143D01*
X19838571Y21260000D01*
X19838571Y21117143D01*
X19810000Y21060000D01*
X19781428Y21031429D01*
X19724285Y21002858D01*
X19667142Y21002858D01*
X19581428Y21031429D01*
X19238571Y21374286D01*
X19238571Y21002858D01*
X19295714Y20745715D02*
X19267142Y20717143D01*
X19238571Y20745715D01*
X19267142Y20774286D01*
X19295714Y20745715D01*
X19238571Y20745715D01*
X19781428Y20488572D02*
X19810000Y20460000D01*
X19838571Y20402858D01*
X19838571Y20260000D01*
X19810000Y20202858D01*
X19781428Y20174286D01*
X19724285Y20145715D01*
X19667142Y20145715D01*
X19581428Y20174286D01*
X19238571Y20517143D01*
X19238571Y20145715D01*
X19638571Y19631429D02*
X19238571Y19631429D01*
X19638571Y19888572D02*
X19324285Y19888572D01*
X19267142Y19860000D01*
X19238571Y19802858D01*
X19238571Y19717143D01*
X19267142Y19660000D01*
X19295714Y19631429D01*
X19238571Y19345715D02*
X19838571Y19345715D01*
X19552857Y19345715D02*
X19552857Y19002858D01*
X19238571Y19002858D02*
X19838571Y19002858D01*
X17311428Y60957143D02*
X16711428Y60957143D01*
X17140000Y61157143D01*
X16711428Y61357143D01*
X17311428Y61357143D01*
X16711428Y61757143D02*
X16711428Y61871429D01*
X16740000Y61928572D01*
X16797142Y61985715D01*
X16911428Y62014286D01*
X17111428Y62014286D01*
X17225714Y61985715D01*
X17282857Y61928572D01*
X17311428Y61871429D01*
X17311428Y61757143D01*
X17282857Y61700000D01*
X17225714Y61642858D01*
X17111428Y61614286D01*
X16911428Y61614286D01*
X16797142Y61642858D01*
X16740000Y61700000D01*
X16711428Y61757143D01*
X17282857Y62242858D02*
X17311428Y62328572D01*
X17311428Y62471429D01*
X17282857Y62528572D01*
X17254285Y62557143D01*
X17197142Y62585715D01*
X17140000Y62585715D01*
X17082857Y62557143D01*
X17054285Y62528572D01*
X17025714Y62471429D01*
X16997142Y62357143D01*
X16968571Y62300000D01*
X16940000Y62271429D01*
X16882857Y62242858D01*
X16825714Y62242858D01*
X16768571Y62271429D01*
X16740000Y62300000D01*
X16711428Y62357143D01*
X16711428Y62500000D01*
X16740000Y62585715D01*
X17311428Y62842858D02*
X16711428Y62842858D01*
X25121428Y20915715D02*
X25521428Y20915715D01*
X24892857Y20772858D02*
X25321428Y20630000D01*
X25321428Y21001429D01*
X25464285Y21230000D02*
X25492857Y21258572D01*
X25521428Y21230000D01*
X25492857Y21201429D01*
X25464285Y21230000D01*
X25521428Y21230000D01*
X24921428Y21458572D02*
X24921428Y21858572D01*
X25521428Y21601429D01*
X25521428Y22087143D02*
X24921428Y22087143D01*
X25521428Y22430000D02*
X25178571Y22172858D01*
X24921428Y22430000D02*
X25264285Y22087143D01*
X35171428Y61928572D02*
X34828571Y61928572D01*
X35000000Y61928572D02*
X35000000Y62528572D01*
X34942857Y62442858D01*
X34885714Y62385715D01*
X34828571Y62357143D01*
X30441428Y21151429D02*
X30441428Y21208572D01*
X30470000Y21265715D01*
X30498571Y21294286D01*
X30555714Y21322858D01*
X30670000Y21351429D01*
X30812857Y21351429D01*
X30927142Y21322858D01*
X30984285Y21294286D01*
X31012857Y21265715D01*
X31041428Y21208572D01*
X31041428Y21151429D01*
X31012857Y21094286D01*
X30984285Y21065715D01*
X30927142Y21037143D01*
X30812857Y21008572D01*
X30670000Y21008572D01*
X30555714Y21037143D01*
X30498571Y21065715D01*
X30470000Y21094286D01*
X30441428Y21151429D01*
X2315714Y37688572D02*
X1972857Y37688572D01*
X2144285Y37688572D02*
X2144285Y38288572D01*
X2087142Y38202858D01*
X2030000Y38145715D01*
X1972857Y38117143D01*
X2687142Y38288572D02*
X2744285Y38288572D01*
X2801428Y38260000D01*
X2830000Y38231429D01*
X2858571Y38174286D01*
X2887142Y38060000D01*
X2887142Y37917143D01*
X2858571Y37802858D01*
X2830000Y37745715D01*
X2801428Y37717143D01*
X2744285Y37688572D01*
X2687142Y37688572D01*
X2630000Y37717143D01*
X2601428Y37745715D01*
X2572857Y37802858D01*
X2544285Y37917143D01*
X2544285Y38060000D01*
X2572857Y38174286D01*
X2601428Y38231429D01*
X2630000Y38260000D01*
X2687142Y38288572D01*
X3144285Y37688572D02*
X3144285Y38288572D01*
X3487142Y37688572D02*
X3230000Y38031429D01*
X3487142Y38288572D02*
X3144285Y37945715D01*
X22218571Y4238572D02*
X21875714Y4238572D01*
X22047142Y4238572D02*
X22047142Y4838572D01*
X21990000Y4752858D01*
X21932857Y4695715D01*
X21875714Y4667143D01*
X22475714Y4238572D02*
X22475714Y4838572D01*
X22675714Y4410000D01*
X22875714Y4838572D01*
X22875714Y4238572D01*
X44281428Y23635715D02*
X44681428Y23635715D01*
X44052857Y23492858D02*
X44481428Y23350000D01*
X44481428Y23721429D01*
X44624285Y23950000D02*
X44652857Y23978572D01*
X44681428Y23950000D01*
X44652857Y23921429D01*
X44624285Y23950000D01*
X44681428Y23950000D01*
X44081428Y24178572D02*
X44081428Y24578572D01*
X44681428Y24321429D01*
X44681428Y24807143D02*
X44081428Y24807143D01*
X44681428Y25150000D02*
X44338571Y24892858D01*
X44081428Y25150000D02*
X44424285Y24807143D01*
X23881428Y10228572D02*
X23881428Y9885715D01*
X23881428Y10057143D02*
X23281428Y10057143D01*
X23367142Y10000000D01*
X23424285Y9942858D01*
X23452857Y9885715D01*
X23881428Y10485715D02*
X23281428Y10485715D01*
X23710000Y10685715D01*
X23281428Y10885715D01*
X23881428Y10885715D01*
X41914285Y60628572D02*
X42114285Y60628572D01*
X41371428Y61171429D02*
X41371428Y60628572D01*
X41371428Y61171429D02*
X42114285Y61171429D01*
X42114285Y60628572D01*
X41742857Y61314286D02*
X41742857Y61028572D01*
X41828571Y60971429D01*
X41885714Y60914286D01*
X42028571Y60800000D01*
X41714285Y61000000D02*
X41571428Y60857143D01*
X41457142Y60800000D01*
X42285714Y61200000D02*
X42657142Y61200000D01*
X42257142Y61000000D02*
X42685714Y61000000D01*
X42314285Y60685715D02*
X42600000Y60685715D01*
X42314285Y60885715D02*
X42314285Y60628572D01*
X42457142Y61314286D02*
X42457142Y61200000D01*
X42314285Y60885715D02*
X42600000Y60885715D01*
X42628571Y60628572D01*
X42742857Y61257143D02*
X42742857Y60628572D01*
X42342857Y61142858D02*
X42371428Y61057143D01*
X42600000Y61171429D02*
X42542857Y61028572D01*
X42742857Y61257143D02*
X43000000Y61257143D01*
X42857142Y61028572D01*
X42971428Y60942858D01*
X43000000Y60857143D01*
X43000000Y60742858D01*
X42857142Y60742858D01*
X43571428Y60628572D02*
X43371428Y60914286D01*
X43228571Y60628572D02*
X43228571Y61228572D01*
X43457142Y61228572D01*
X43514285Y61200000D01*
X43542857Y61171429D01*
X43571428Y61114286D01*
X43571428Y61028572D01*
X43542857Y60971429D01*
X43514285Y60942858D01*
X43457142Y60914286D01*
X43228571Y60914286D01*
X43800000Y60800000D02*
X44085714Y60800000D01*
X43742857Y60628572D02*
X43942857Y61228572D01*
X44142857Y60628572D01*
X44342857Y60628572D02*
X44342857Y61228572D01*
X44542857Y60800000D01*
X44742857Y61228572D01*
X44742857Y60628572D01*
X1001428Y39768572D02*
X1058571Y39768572D01*
X1115714Y39740000D01*
X1144285Y39711429D01*
X1172857Y39654286D01*
X1201428Y39540000D01*
X1201428Y39397143D01*
X1172857Y39282858D01*
X1144285Y39225715D01*
X1115714Y39197143D01*
X1058571Y39168572D01*
X1001428Y39168572D01*
X944285Y39197143D01*
X915714Y39225715D01*
X887142Y39282858D01*
X858571Y39397143D01*
X858571Y39540000D01*
X887142Y39654286D01*
X915714Y39711429D01*
X944285Y39740000D01*
X1001428Y39768572D01*
X8061428Y28154286D02*
X8061428Y27811429D01*
X8061428Y27982858D02*
X7461428Y27982858D01*
X7547142Y27925715D01*
X7604285Y27868572D01*
X7632857Y27811429D01*
X7461428Y28525715D02*
X7461428Y28582858D01*
X7490000Y28640000D01*
X7518571Y28668572D01*
X7575714Y28697143D01*
X7690000Y28725715D01*
X7832857Y28725715D01*
X7947142Y28697143D01*
X8004285Y28668572D01*
X8032857Y28640000D01*
X8061428Y28582858D01*
X8061428Y28525715D01*
X8032857Y28468572D01*
X8004285Y28440000D01*
X7947142Y28411429D01*
X7832857Y28382858D01*
X7690000Y28382858D01*
X7575714Y28411429D01*
X7518571Y28440000D01*
X7490000Y28468572D01*
X7461428Y28525715D01*
X7661428Y28982858D02*
X8261428Y28982858D01*
X7690000Y28982858D02*
X7661428Y29040000D01*
X7661428Y29154286D01*
X7690000Y29211429D01*
X7718571Y29240000D01*
X7775714Y29268572D01*
X7947142Y29268572D01*
X8004285Y29240000D01*
X8032857Y29211429D01*
X8061428Y29154286D01*
X8061428Y29040000D01*
X8032857Y28982858D01*
X25731428Y59031429D02*
X25731428Y58688572D01*
X25731428Y58860000D02*
X25131428Y58860000D01*
X25217142Y58802858D01*
X25274285Y58745715D01*
X25302857Y58688572D01*
X25731428Y59288572D02*
X25131428Y59288572D01*
X25731428Y59631429D02*
X25388571Y59374286D01*
X25131428Y59631429D02*
X25474285Y59288572D01*
X27585714Y43008572D02*
X27242857Y43008572D01*
X27414285Y43008572D02*
X27414285Y43608572D01*
X27357142Y43522858D01*
X27300000Y43465715D01*
X27242857Y43437143D01*
X27957142Y43608572D02*
X28014285Y43608572D01*
X28071428Y43580000D01*
X28100000Y43551429D01*
X28128571Y43494286D01*
X28157142Y43380000D01*
X28157142Y43237143D01*
X28128571Y43122858D01*
X28100000Y43065715D01*
X28071428Y43037143D01*
X28014285Y43008572D01*
X27957142Y43008572D01*
X27900000Y43037143D01*
X27871428Y43065715D01*
X27842857Y43122858D01*
X27814285Y43237143D01*
X27814285Y43380000D01*
X27842857Y43494286D01*
X27871428Y43551429D01*
X27900000Y43580000D01*
X27957142Y43608572D01*
X28414285Y43008572D02*
X28414285Y43608572D01*
X28757142Y43008572D02*
X28500000Y43351429D01*
X28757142Y43608572D02*
X28414285Y43265715D01*
X1400000Y40525858D02*
X1485714Y40497286D01*
X1514285Y40468715D01*
X1542857Y40411572D01*
X1542857Y40325858D01*
X1514285Y40268715D01*
X1485714Y40240143D01*
X1428571Y40211572D01*
X1200000Y40211572D01*
X1200000Y40811572D01*
X1400000Y40811572D01*
X1457142Y40783000D01*
X1485714Y40754429D01*
X1514285Y40697286D01*
X1514285Y40640143D01*
X1485714Y40583000D01*
X1457142Y40554429D01*
X1400000Y40525858D01*
X1200000Y40525858D01*
X1914285Y40811572D02*
X2028571Y40811572D01*
X2085714Y40783000D01*
X2142857Y40725858D01*
X2171428Y40611572D01*
X2171428Y40411572D01*
X2142857Y40297286D01*
X2085714Y40240143D01*
X2028571Y40211572D01*
X1914285Y40211572D01*
X1857142Y40240143D01*
X1800000Y40297286D01*
X1771428Y40411572D01*
X1771428Y40611572D01*
X1800000Y40725858D01*
X1857142Y40783000D01*
X1914285Y40811572D01*
X2542857Y40811572D02*
X2657142Y40811572D01*
X2714285Y40783000D01*
X2771428Y40725858D01*
X2800000Y40611572D01*
X2800000Y40411572D01*
X2771428Y40297286D01*
X2714285Y40240143D01*
X2657142Y40211572D01*
X2542857Y40211572D01*
X2485714Y40240143D01*
X2428571Y40297286D01*
X2400000Y40411572D01*
X2400000Y40611572D01*
X2428571Y40725858D01*
X2485714Y40783000D01*
X2542857Y40811572D01*
X2971428Y40811572D02*
X3314285Y40811572D01*
X3142857Y40211572D02*
X3142857Y40811572D01*
X3628571Y40811572D02*
X3685714Y40811572D01*
X3742857Y40783000D01*
X3771428Y40754429D01*
X3800000Y40697286D01*
X3828571Y40583000D01*
X3828571Y40440143D01*
X3800000Y40325858D01*
X3771428Y40268715D01*
X3742857Y40240143D01*
X3685714Y40211572D01*
X3628571Y40211572D01*
X3571428Y40240143D01*
X3542857Y40268715D01*
X3514285Y40325858D01*
X3485714Y40440143D01*
X3485714Y40583000D01*
X3514285Y40697286D01*
X3542857Y40754429D01*
X3571428Y40783000D01*
X3628571Y40811572D01*
X1528571Y39445572D02*
X2042857Y39445572D01*
X2214285Y39445572D02*
X2728571Y39445572D01*
X2957142Y39645572D02*
X3414285Y39474143D01*
X2957142Y39302715D01*
X1170000Y17850000D02*
X1141428Y17792858D01*
X1141428Y17707143D01*
X1170000Y17621429D01*
X1227142Y17564286D01*
X1284285Y17535715D01*
X1398571Y17507143D01*
X1484285Y17507143D01*
X1598571Y17535715D01*
X1655714Y17564286D01*
X1712857Y17621429D01*
X1741428Y17707143D01*
X1741428Y17764286D01*
X1712857Y17850000D01*
X1684285Y17878572D01*
X1484285Y17878572D01*
X1484285Y17764286D01*
X1141428Y18507143D02*
X1141428Y18850000D01*
X1741428Y18678572D02*
X1141428Y18678572D01*
X1141428Y18992858D02*
X1741428Y19392858D01*
X1141428Y19392858D02*
X1741428Y18992858D01*
X1741428Y20421429D02*
X1455714Y20221429D01*
X1741428Y20078572D02*
X1141428Y20078572D01*
X1141428Y20307143D01*
X1170000Y20364286D01*
X1198571Y20392858D01*
X1255714Y20421429D01*
X1341428Y20421429D01*
X1398571Y20392858D01*
X1427142Y20364286D01*
X1455714Y20307143D01*
X1455714Y20078572D01*
X1141428Y20621429D02*
X1741428Y21021429D01*
X1141428Y21021429D02*
X1741428Y20621429D01*
X41500000Y63757143D02*
X42128571Y63757143D01*
X41500000Y63557143D02*
X42128571Y63557143D01*
X41957142Y63328572D02*
X42128571Y63328572D01*
X41785714Y63957143D02*
X41785714Y63328572D01*
X41500000Y63957143D02*
X42128571Y63957143D01*
X42128571Y63328572D01*
X41500000Y63957143D02*
X41500000Y63585715D01*
X41471428Y63414286D01*
X42414285Y63671429D02*
X43014285Y63671429D01*
X42414285Y63871429D02*
X43014285Y63871429D01*
X43014285Y63614286D01*
X42700000Y64014286D02*
X42728571Y63900000D01*
X42414285Y63871429D02*
X42414285Y63557143D01*
X42300000Y63328572D01*
X42414285Y63757143D02*
X42385714Y63442858D01*
X43728571Y63328572D02*
X43900000Y63328572D01*
X43157142Y63814286D02*
X43157142Y63328572D01*
X43414285Y63957143D02*
X43900000Y63957143D01*
X43900000Y63328572D01*
X43214285Y63985715D02*
X43328571Y63871429D01*
X43528571Y63728572D02*
X43757142Y63471429D01*
X43528571Y63700000D02*
X43300000Y63471429D01*
X43557142Y63842858D02*
X43442857Y63585715D01*
X44071428Y63900000D02*
X44757142Y63900000D01*
X44271428Y63557143D02*
X44785714Y63557143D01*
X44185714Y63728572D02*
X44185714Y63328572D01*
X44357142Y64014286D02*
X44214285Y63728572D01*
X44042857Y63557143D01*
X44357142Y63757143D02*
X44728571Y63757143D01*
X44642857Y63671429D01*
X44557142Y63642858D01*
X44557142Y63328572D01*
X44385714Y63328572D01*
X4301428Y6788572D02*
X3958571Y6788572D01*
X4130000Y6788572D02*
X4130000Y7388572D01*
X4072857Y7302858D01*
X4015714Y7245715D01*
X3958571Y7217143D01*
X4558571Y6788572D02*
X4558571Y7388572D01*
X4901428Y6788572D02*
X4644285Y7131429D01*
X4901428Y7388572D02*
X4558571Y7045715D01*
X37828571Y63957143D02*
X38457142Y63957143D01*
X37771428Y63700000D02*
X38514285Y63700000D01*
X38171428Y63328572D02*
X38485714Y63328572D01*
X38200000Y63642858D02*
X38200000Y63357143D01*
X38057142Y63528572D02*
X37942857Y63414286D01*
X37771428Y63328572D01*
X38514285Y63471429D02*
X38485714Y63328572D01*
X38142857Y63957143D02*
X38114285Y63757143D01*
X38085714Y63528572D01*
X38714285Y63814286D02*
X39342857Y63814286D01*
X38685714Y63642858D02*
X39400000Y63642858D01*
X38800000Y63985715D02*
X38885714Y63900000D01*
X39285714Y63985715D02*
X39171428Y63871429D01*
X39028571Y63700000D02*
X39085714Y63500000D01*
X39200000Y63414286D01*
X39400000Y63328572D01*
X39028571Y63814286D02*
X39028571Y63557143D01*
X38914285Y63414286D01*
X38657142Y63328572D01*
X32441428Y47025715D02*
X32841428Y47025715D01*
X32212857Y46882858D02*
X32641428Y46740000D01*
X32641428Y47111429D01*
X32784285Y47340000D02*
X32812857Y47368572D01*
X32841428Y47340000D01*
X32812857Y47311429D01*
X32784285Y47340000D01*
X32841428Y47340000D01*
X32241428Y47568572D02*
X32241428Y47968572D01*
X32841428Y47711429D01*
X32841428Y48197143D02*
X32241428Y48197143D01*
X32841428Y48540000D02*
X32498571Y48282858D01*
X32241428Y48540000D02*
X32584285Y48197143D01*
X7191428Y17351429D02*
X7220000Y17380000D01*
X7277142Y17408572D01*
X7420000Y17408572D01*
X7477142Y17380000D01*
X7505714Y17351429D01*
X7534285Y17294286D01*
X7534285Y17237143D01*
X7505714Y17151429D01*
X7162857Y16808572D01*
X7534285Y16808572D01*
X7762857Y17351429D02*
X7791428Y17380000D01*
X7848571Y17408572D01*
X7991428Y17408572D01*
X8048571Y17380000D01*
X8077142Y17351429D01*
X8105714Y17294286D01*
X8105714Y17237143D01*
X8077142Y17151429D01*
X7734285Y16808572D01*
X8105714Y16808572D01*
X8620000Y17208572D02*
X8620000Y16808572D01*
X8362857Y17208572D02*
X8362857Y16894286D01*
X8391428Y16837143D01*
X8448571Y16808572D01*
X8534285Y16808572D01*
X8591428Y16837143D01*
X8620000Y16865715D01*
D11*
X21156190Y12908393D02*
X20918095Y12741727D01*
X21156190Y12622679D02*
X20656190Y12622679D01*
X20656190Y12813155D01*
X20680000Y12860774D01*
X20703809Y12884584D01*
X20751428Y12908393D01*
X20822857Y12908393D01*
X20870476Y12884584D01*
X20894285Y12860774D01*
X20918095Y12813155D01*
X20918095Y12622679D01*
X20656190Y13122679D02*
X21060952Y13122679D01*
X21108571Y13146489D01*
X21132380Y13170298D01*
X21156190Y13217917D01*
X21156190Y13313155D01*
X21132380Y13360774D01*
X21108571Y13384584D01*
X21060952Y13408393D01*
X20656190Y13408393D01*
X21156190Y13646489D02*
X20656190Y13646489D01*
X21156190Y13932203D01*
X20656190Y13932203D01*
D10*
X24991428Y18581429D02*
X24991428Y18295715D01*
X25277142Y18267143D01*
X25248571Y18295715D01*
X25220000Y18352858D01*
X25220000Y18495715D01*
X25248571Y18552858D01*
X25277142Y18581429D01*
X25334285Y18610000D01*
X25477142Y18610000D01*
X25534285Y18581429D01*
X25562857Y18552858D01*
X25591428Y18495715D01*
X25591428Y18352858D01*
X25562857Y18295715D01*
X25534285Y18267143D01*
X25591428Y19181429D02*
X25591428Y18838572D01*
X25591428Y19010000D02*
X24991428Y19010000D01*
X25077142Y18952858D01*
X25134285Y18895715D01*
X25162857Y18838572D01*
X24991428Y19552858D02*
X24991428Y19610000D01*
X25020000Y19667143D01*
X25048571Y19695715D01*
X25105714Y19724286D01*
X25220000Y19752858D01*
X25362857Y19752858D01*
X25477142Y19724286D01*
X25534285Y19695715D01*
X25562857Y19667143D01*
X25591428Y19610000D01*
X25591428Y19552858D01*
X25562857Y19495715D01*
X25534285Y19467143D01*
X25477142Y19438572D01*
X25362857Y19410000D01*
X25220000Y19410000D01*
X25105714Y19438572D01*
X25048571Y19467143D01*
X25020000Y19495715D01*
X24991428Y19552858D01*
X15852857Y12948572D02*
X15852857Y12548572D01*
X15710000Y13177143D02*
X15567142Y12748572D01*
X15938571Y12748572D01*
X16452857Y13148572D02*
X16167142Y13148572D01*
X16138571Y12862858D01*
X16167142Y12891429D01*
X16224285Y12920000D01*
X16367142Y12920000D01*
X16424285Y12891429D01*
X16452857Y12862858D01*
X16481428Y12805715D01*
X16481428Y12662858D01*
X16452857Y12605715D01*
X16424285Y12577143D01*
X16367142Y12548572D01*
X16224285Y12548572D01*
X16167142Y12577143D01*
X16138571Y12605715D01*
X16681428Y13148572D02*
X17052857Y13148572D01*
X16852857Y12920000D01*
X16938571Y12920000D01*
X16995714Y12891429D01*
X17024285Y12862858D01*
X17052857Y12805715D01*
X17052857Y12662858D01*
X17024285Y12605715D01*
X16995714Y12577143D01*
X16938571Y12548572D01*
X16767142Y12548572D01*
X16710000Y12577143D01*
X16681428Y12605715D01*
X17310000Y12548572D02*
X17310000Y13148572D01*
X17652857Y12548572D02*
X17395714Y12891429D01*
X17652857Y13148572D02*
X17310000Y12805715D01*
X13841428Y15960000D02*
X13841428Y15617143D01*
X13841428Y15788572D02*
X13241428Y15788572D01*
X13327142Y15731429D01*
X13384285Y15674286D01*
X13412857Y15617143D01*
X13241428Y16331429D02*
X13241428Y16388572D01*
X13270000Y16445715D01*
X13298571Y16474286D01*
X13355714Y16502858D01*
X13470000Y16531429D01*
X13612857Y16531429D01*
X13727142Y16502858D01*
X13784285Y16474286D01*
X13812857Y16445715D01*
X13841428Y16388572D01*
X13841428Y16331429D01*
X13812857Y16274286D01*
X13784285Y16245715D01*
X13727142Y16217143D01*
X13612857Y16188572D01*
X13470000Y16188572D01*
X13355714Y16217143D01*
X13298571Y16245715D01*
X13270000Y16274286D01*
X13241428Y16331429D01*
X13241428Y16902858D02*
X13241428Y16960000D01*
X13270000Y17017143D01*
X13298571Y17045715D01*
X13355714Y17074286D01*
X13470000Y17102858D01*
X13612857Y17102858D01*
X13727142Y17074286D01*
X13784285Y17045715D01*
X13812857Y17017143D01*
X13841428Y16960000D01*
X13841428Y16902858D01*
X13812857Y16845715D01*
X13784285Y16817143D01*
X13727142Y16788572D01*
X13612857Y16760000D01*
X13470000Y16760000D01*
X13355714Y16788572D01*
X13298571Y16817143D01*
X13270000Y16845715D01*
X13241428Y16902858D01*
X13841428Y17360000D02*
X13241428Y17360000D01*
X13841428Y17702858D02*
X13498571Y17445715D01*
X13241428Y17702858D02*
X13584285Y17360000D01*
X34141428Y23925715D02*
X34141428Y23582858D01*
X34141428Y23754286D02*
X33541428Y23754286D01*
X33627142Y23697143D01*
X33684285Y23640000D01*
X33712857Y23582858D01*
X33598571Y24154286D02*
X33570000Y24182858D01*
X33541428Y24240000D01*
X33541428Y24382858D01*
X33570000Y24440000D01*
X33598571Y24468572D01*
X33655714Y24497143D01*
X33712857Y24497143D01*
X33798571Y24468572D01*
X34141428Y24125715D01*
X34141428Y24497143D01*
X34141428Y24754286D02*
X33541428Y24754286D01*
X34141428Y25097143D02*
X33798571Y24840000D01*
X33541428Y25097143D02*
X33884285Y24754286D01*
X8868571Y27748572D02*
X8525714Y27748572D01*
X8697142Y27748572D02*
X8697142Y28348572D01*
X8640000Y28262858D01*
X8582857Y28205715D01*
X8525714Y28177143D01*
X9125714Y27748572D02*
X9125714Y28348572D01*
X9325714Y27920000D01*
X9525714Y28348572D01*
X9525714Y27748572D01*
D11*
X22444285Y12670298D02*
X22444285Y12836965D01*
X22706190Y12908393D02*
X22706190Y12670298D01*
X22206190Y12670298D01*
X22206190Y12908393D01*
X22706190Y13408393D02*
X22468095Y13241727D01*
X22706190Y13122679D02*
X22206190Y13122679D01*
X22206190Y13313155D01*
X22230000Y13360774D01*
X22253809Y13384584D01*
X22301428Y13408393D01*
X22372857Y13408393D01*
X22420476Y13384584D01*
X22444285Y13360774D01*
X22468095Y13313155D01*
X22468095Y13122679D01*
X22706190Y13908393D02*
X22468095Y13741727D01*
X22706190Y13622679D02*
X22206190Y13622679D01*
X22206190Y13813155D01*
X22230000Y13860774D01*
X22253809Y13884584D01*
X22301428Y13908393D01*
X22372857Y13908393D01*
X22420476Y13884584D01*
X22444285Y13860774D01*
X22468095Y13813155D01*
X22468095Y13622679D01*
D10*
X11011428Y23911429D02*
X11040000Y23940000D01*
X11097142Y23968572D01*
X11240000Y23968572D01*
X11297142Y23940000D01*
X11325714Y23911429D01*
X11354285Y23854286D01*
X11354285Y23797143D01*
X11325714Y23711429D01*
X10982857Y23368572D01*
X11354285Y23368572D01*
X11582857Y23911429D02*
X11611428Y23940000D01*
X11668571Y23968572D01*
X11811428Y23968572D01*
X11868571Y23940000D01*
X11897142Y23911429D01*
X11925714Y23854286D01*
X11925714Y23797143D01*
X11897142Y23711429D01*
X11554285Y23368572D01*
X11925714Y23368572D01*
X12440000Y23768572D02*
X12440000Y23368572D01*
X12182857Y23768572D02*
X12182857Y23454286D01*
X12211428Y23397143D01*
X12268571Y23368572D01*
X12354285Y23368572D01*
X12411428Y23397143D01*
X12440000Y23425715D01*
X17568571Y25420000D02*
X17568571Y25762858D01*
X17568571Y25591429D02*
X18168571Y25591429D01*
X18082857Y25648572D01*
X18025714Y25705715D01*
X17997142Y25762858D01*
X18168571Y25048572D02*
X18168571Y24991429D01*
X18140000Y24934286D01*
X18111428Y24905715D01*
X18054285Y24877143D01*
X17940000Y24848572D01*
X17797142Y24848572D01*
X17682857Y24877143D01*
X17625714Y24905715D01*
X17597142Y24934286D01*
X17568571Y24991429D01*
X17568571Y25048572D01*
X17597142Y25105715D01*
X17625714Y25134286D01*
X17682857Y25162858D01*
X17797142Y25191429D01*
X17940000Y25191429D01*
X18054285Y25162858D01*
X18111428Y25134286D01*
X18140000Y25105715D01*
X18168571Y25048572D01*
X18168571Y24477143D02*
X18168571Y24420000D01*
X18140000Y24362858D01*
X18111428Y24334286D01*
X18054285Y24305715D01*
X17940000Y24277143D01*
X17797142Y24277143D01*
X17682857Y24305715D01*
X17625714Y24334286D01*
X17597142Y24362858D01*
X17568571Y24420000D01*
X17568571Y24477143D01*
X17597142Y24534286D01*
X17625714Y24562858D01*
X17682857Y24591429D01*
X17797142Y24620000D01*
X17940000Y24620000D01*
X18054285Y24591429D01*
X18111428Y24562858D01*
X18140000Y24534286D01*
X18168571Y24477143D01*
X17568571Y24020000D02*
X18168571Y24020000D01*
X17568571Y23677143D02*
X17911428Y23934286D01*
X18168571Y23677143D02*
X17825714Y24020000D01*
X38571428Y62528572D02*
X38628571Y62528572D01*
X38685714Y62500000D01*
X38714285Y62471429D01*
X38742857Y62414286D01*
X38771428Y62300000D01*
X38771428Y62157143D01*
X38742857Y62042858D01*
X38714285Y61985715D01*
X38685714Y61957143D01*
X38628571Y61928572D01*
X38571428Y61928572D01*
X38514285Y61957143D01*
X38485714Y61985715D01*
X38457142Y62042858D01*
X38428571Y62157143D01*
X38428571Y62300000D01*
X38457142Y62414286D01*
X38485714Y62471429D01*
X38514285Y62500000D01*
X38571428Y62528572D01*
X11588571Y19704286D02*
X11560000Y19732858D01*
X11531428Y19790000D01*
X11531428Y19932858D01*
X11560000Y19990000D01*
X11588571Y20018572D01*
X11645714Y20047143D01*
X11702857Y20047143D01*
X11788571Y20018572D01*
X12131428Y19675715D01*
X12131428Y20047143D01*
X12074285Y20304286D02*
X12102857Y20332858D01*
X12131428Y20304286D01*
X12102857Y20275715D01*
X12074285Y20304286D01*
X12131428Y20304286D01*
X11588571Y20561429D02*
X11560000Y20590000D01*
X11531428Y20647143D01*
X11531428Y20790000D01*
X11560000Y20847143D01*
X11588571Y20875715D01*
X11645714Y20904286D01*
X11702857Y20904286D01*
X11788571Y20875715D01*
X12131428Y20532858D01*
X12131428Y20904286D01*
X11731428Y21418572D02*
X12131428Y21418572D01*
X11731428Y21161429D02*
X12045714Y21161429D01*
X12102857Y21190000D01*
X12131428Y21247143D01*
X12131428Y21332858D01*
X12102857Y21390000D01*
X12074285Y21418572D01*
X12131428Y21704286D02*
X11531428Y21704286D01*
X11817142Y21704286D02*
X11817142Y22047143D01*
X12131428Y22047143D02*
X11531428Y22047143D01*
X40742857Y61928572D02*
X40742857Y62528572D01*
X41000000Y61957143D02*
X41085714Y61928572D01*
X41228571Y61928572D01*
X41285714Y61957143D01*
X41314285Y61985715D01*
X41342857Y62042858D01*
X41342857Y62100000D01*
X41314285Y62157143D01*
X41285714Y62185715D01*
X41228571Y62214286D01*
X41114285Y62242858D01*
X41057142Y62271429D01*
X41028571Y62300000D01*
X41000000Y62357143D01*
X41000000Y62414286D01*
X41028571Y62471429D01*
X41057142Y62500000D01*
X41114285Y62528572D01*
X41257142Y62528572D01*
X41342857Y62500000D01*
X41600000Y61928572D02*
X41600000Y62528572D01*
X41828571Y62528572D01*
X41885714Y62500000D01*
X41914285Y62471429D01*
X41942857Y62414286D01*
X41942857Y62328572D01*
X41914285Y62271429D01*
X41885714Y62242858D01*
X41828571Y62214286D01*
X41600000Y62214286D01*
X42114285Y62557143D02*
X42857142Y62557143D01*
X42457142Y62557143D02*
X42457142Y61928572D01*
X42457142Y62385715D02*
X42800000Y62214286D01*
X43057142Y62528572D02*
X43400000Y62528572D01*
X43000000Y62414286D02*
X43742857Y62414286D01*
X43000000Y62300000D02*
X43428571Y62300000D01*
X43057142Y62157143D02*
X43400000Y62157143D01*
X43228571Y62614286D02*
X43228571Y62414286D01*
X43257142Y62242858D02*
X43257142Y61928572D01*
X43600000Y62585715D02*
X43685714Y62500000D01*
X43571428Y62100000D02*
X43400000Y61928572D01*
X43600000Y61957143D02*
X43685714Y61928572D01*
X43685714Y62357143D02*
X43542857Y62042858D01*
X43171428Y62385715D02*
X43057142Y62157143D01*
X43742857Y62071429D02*
X43714285Y61928572D01*
X43514285Y62614286D02*
X43514285Y62357143D01*
X43542857Y62042858D01*
X43257142Y62042858D02*
X43057142Y62014286D01*
X43342857Y62042858D02*
X43171428Y62042858D01*
X43428571Y62042858D02*
X43257142Y62042858D01*
X44142857Y62528572D02*
X44628571Y62528572D01*
X43885714Y62442858D02*
X44114285Y62442858D01*
X44200000Y62328572D02*
X44571428Y62328572D01*
X44200000Y62214286D02*
X44571428Y62214286D01*
X44114285Y62100000D02*
X44628571Y62100000D01*
X44028571Y62614286D02*
X44028571Y61928572D01*
X44200000Y62414286D02*
X44200000Y62214286D01*
X44285714Y62614286D02*
X44285714Y62471429D01*
X44485714Y62614286D02*
X44485714Y62471429D01*
X44200000Y62414286D02*
X44571428Y62414286D01*
X44571428Y62214286D01*
X44000000Y62442858D02*
X44085714Y62242858D01*
X44371428Y62128572D02*
X44485714Y61985715D01*
X44628571Y61928572D01*
X44000000Y62471429D02*
X43914285Y62128572D01*
X44371428Y62214286D02*
X44314285Y62042858D01*
X44257142Y61985715D01*
X44114285Y61928572D01*
X44771428Y62442858D02*
X45514285Y62442858D01*
X44800000Y62271429D02*
X45171428Y62271429D01*
X44971428Y62271429D02*
X44971428Y61985715D01*
X45342857Y62585715D02*
X45428571Y62500000D01*
X45171428Y62042858D02*
X44771428Y61957143D01*
X45257142Y62585715D02*
X45257142Y62385715D01*
X45314285Y61985715D01*
X45485714Y61928572D01*
X45514285Y62042858D01*
X33391428Y57528572D02*
X33105714Y57328572D01*
X33391428Y57185715D02*
X32791428Y57185715D01*
X32791428Y57414286D01*
X32820000Y57471429D01*
X32848571Y57500000D01*
X32905714Y57528572D01*
X32991428Y57528572D01*
X33048571Y57500000D01*
X33077142Y57471429D01*
X33105714Y57414286D01*
X33105714Y57185715D01*
X33077142Y57785715D02*
X33077142Y57985715D01*
X33391428Y58071429D02*
X33391428Y57785715D01*
X32791428Y57785715D01*
X32791428Y58071429D01*
X33362857Y58300000D02*
X33391428Y58385715D01*
X33391428Y58528572D01*
X33362857Y58585715D01*
X33334285Y58614286D01*
X33277142Y58642858D01*
X33220000Y58642858D01*
X33162857Y58614286D01*
X33134285Y58585715D01*
X33105714Y58528572D01*
X33077142Y58414286D01*
X33048571Y58357143D01*
X33020000Y58328572D01*
X32962857Y58300000D01*
X32905714Y58300000D01*
X32848571Y58328572D01*
X32820000Y58357143D01*
X32791428Y58414286D01*
X32791428Y58557143D01*
X32820000Y58642858D01*
X33077142Y58900000D02*
X33077142Y59100000D01*
X33391428Y59185715D02*
X33391428Y58900000D01*
X32791428Y58900000D01*
X32791428Y59185715D01*
X32791428Y59357143D02*
X32791428Y59700000D01*
X33391428Y59528572D02*
X32791428Y59528572D01*
X33900000Y65042858D02*
X33985714Y65014286D01*
X34014285Y64985715D01*
X34042857Y64928572D01*
X34042857Y64842858D01*
X34014285Y64785715D01*
X33985714Y64757143D01*
X33928571Y64728572D01*
X33700000Y64728572D01*
X33700000Y65328572D01*
X33900000Y65328572D01*
X33957142Y65300000D01*
X33985714Y65271429D01*
X34014285Y65214286D01*
X34014285Y65157143D01*
X33985714Y65100000D01*
X33957142Y65071429D01*
X33900000Y65042858D01*
X33700000Y65042858D01*
X34414285Y65328572D02*
X34528571Y65328572D01*
X34585714Y65300000D01*
X34642857Y65242858D01*
X34671428Y65128572D01*
X34671428Y64928572D01*
X34642857Y64814286D01*
X34585714Y64757143D01*
X34528571Y64728572D01*
X34414285Y64728572D01*
X34357142Y64757143D01*
X34300000Y64814286D01*
X34271428Y64928572D01*
X34271428Y65128572D01*
X34300000Y65242858D01*
X34357142Y65300000D01*
X34414285Y65328572D01*
X35042857Y65328572D02*
X35157142Y65328572D01*
X35214285Y65300000D01*
X35271428Y65242858D01*
X35300000Y65128572D01*
X35300000Y64928572D01*
X35271428Y64814286D01*
X35214285Y64757143D01*
X35157142Y64728572D01*
X35042857Y64728572D01*
X34985714Y64757143D01*
X34928571Y64814286D01*
X34900000Y64928572D01*
X34900000Y65128572D01*
X34928571Y65242858D01*
X34985714Y65300000D01*
X35042857Y65328572D01*
X35471428Y65328572D02*
X35814285Y65328572D01*
X35642857Y64728572D02*
X35642857Y65328572D01*
X36128571Y65328572D02*
X36185714Y65328572D01*
X36242857Y65300000D01*
X36271428Y65271429D01*
X36300000Y65214286D01*
X36328571Y65100000D01*
X36328571Y64957143D01*
X36300000Y64842858D01*
X36271428Y64785715D01*
X36242857Y64757143D01*
X36185714Y64728572D01*
X36128571Y64728572D01*
X36071428Y64757143D01*
X36042857Y64785715D01*
X36014285Y64842858D01*
X35985714Y64957143D01*
X35985714Y65100000D01*
X36014285Y65214286D01*
X36042857Y65271429D01*
X36071428Y65300000D01*
X36128571Y65328572D01*
X38881428Y45425715D02*
X39281428Y45425715D01*
X38652857Y45282858D02*
X39081428Y45140000D01*
X39081428Y45511429D01*
X39224285Y45740000D02*
X39252857Y45768572D01*
X39281428Y45740000D01*
X39252857Y45711429D01*
X39224285Y45740000D01*
X39281428Y45740000D01*
X38681428Y45968572D02*
X38681428Y46368572D01*
X39281428Y46111429D01*
X39281428Y46597143D02*
X38681428Y46597143D01*
X39281428Y46940000D02*
X38938571Y46682858D01*
X38681428Y46940000D02*
X39024285Y46597143D01*
X16081428Y60957143D02*
X15481428Y60957143D01*
X15910000Y61157143D01*
X15481428Y61357143D01*
X16081428Y61357143D01*
X16081428Y61642858D02*
X15481428Y61642858D01*
X16052857Y61900000D02*
X16081428Y61985715D01*
X16081428Y62128572D01*
X16052857Y62185715D01*
X16024285Y62214286D01*
X15967142Y62242858D01*
X15910000Y62242858D01*
X15852857Y62214286D01*
X15824285Y62185715D01*
X15795714Y62128572D01*
X15767142Y62014286D01*
X15738571Y61957143D01*
X15710000Y61928572D01*
X15652857Y61900000D01*
X15595714Y61900000D01*
X15538571Y61928572D01*
X15510000Y61957143D01*
X15481428Y62014286D01*
X15481428Y62157143D01*
X15510000Y62242858D01*
X15481428Y62614286D02*
X15481428Y62728572D01*
X15510000Y62785715D01*
X15567142Y62842858D01*
X15681428Y62871429D01*
X15881428Y62871429D01*
X15995714Y62842858D01*
X16052857Y62785715D01*
X16081428Y62728572D01*
X16081428Y62614286D01*
X16052857Y62557143D01*
X15995714Y62500000D01*
X15881428Y62471429D01*
X15681428Y62471429D01*
X15567142Y62500000D01*
X15510000Y62557143D01*
X15481428Y62614286D01*
X35171428Y60628572D02*
X34828571Y60628572D01*
X35000000Y60628572D02*
X35000000Y61228572D01*
X34942857Y61142858D01*
X34885714Y61085715D01*
X34828571Y61057143D01*
X13721428Y61157143D02*
X13121428Y61157143D01*
X13721428Y61500000D01*
X13121428Y61500000D01*
X13692857Y61757143D02*
X13721428Y61842858D01*
X13721428Y61985715D01*
X13692857Y62042858D01*
X13664285Y62071429D01*
X13607142Y62100000D01*
X13550000Y62100000D01*
X13492857Y62071429D01*
X13464285Y62042858D01*
X13435714Y61985715D01*
X13407142Y61871429D01*
X13378571Y61814286D01*
X13350000Y61785715D01*
X13292857Y61757143D01*
X13235714Y61757143D01*
X13178571Y61785715D01*
X13150000Y61814286D01*
X13121428Y61871429D01*
X13121428Y62014286D01*
X13150000Y62100000D01*
X13692857Y62328572D02*
X13721428Y62414286D01*
X13721428Y62557143D01*
X13692857Y62614286D01*
X13664285Y62642858D01*
X13607142Y62671429D01*
X13550000Y62671429D01*
X13492857Y62642858D01*
X13464285Y62614286D01*
X13435714Y62557143D01*
X13407142Y62442858D01*
X13378571Y62385715D01*
X13350000Y62357143D01*
X13292857Y62328572D01*
X13235714Y62328572D01*
X13178571Y62357143D01*
X13150000Y62385715D01*
X13121428Y62442858D01*
X13121428Y62585715D01*
X13150000Y62671429D01*
X7931428Y18221429D02*
X7960000Y18250000D01*
X8017142Y18278572D01*
X8160000Y18278572D01*
X8217142Y18250000D01*
X8245714Y18221429D01*
X8274285Y18164286D01*
X8274285Y18107143D01*
X8245714Y18021429D01*
X7902857Y17678572D01*
X8274285Y17678572D01*
X8502857Y18221429D02*
X8531428Y18250000D01*
X8588571Y18278572D01*
X8731428Y18278572D01*
X8788571Y18250000D01*
X8817142Y18221429D01*
X8845714Y18164286D01*
X8845714Y18107143D01*
X8817142Y18021429D01*
X8474285Y17678572D01*
X8845714Y17678572D01*
X9360000Y18078572D02*
X9360000Y17678572D01*
X9102857Y18078572D02*
X9102857Y17764286D01*
X9131428Y17707143D01*
X9188571Y17678572D01*
X9274285Y17678572D01*
X9331428Y17707143D01*
X9360000Y17735715D01*
X40971428Y21061429D02*
X40971428Y20775715D01*
X41257142Y20747143D01*
X41228571Y20775715D01*
X41200000Y20832858D01*
X41200000Y20975715D01*
X41228571Y21032858D01*
X41257142Y21061429D01*
X41314285Y21090000D01*
X41457142Y21090000D01*
X41514285Y21061429D01*
X41542857Y21032858D01*
X41571428Y20975715D01*
X41571428Y20832858D01*
X41542857Y20775715D01*
X41514285Y20747143D01*
X41571428Y21661429D02*
X41571428Y21318572D01*
X41571428Y21490000D02*
X40971428Y21490000D01*
X41057142Y21432858D01*
X41114285Y21375715D01*
X41142857Y21318572D01*
X40971428Y22032858D02*
X40971428Y22090000D01*
X41000000Y22147143D01*
X41028571Y22175715D01*
X41085714Y22204286D01*
X41200000Y22232858D01*
X41342857Y22232858D01*
X41457142Y22204286D01*
X41514285Y22175715D01*
X41542857Y22147143D01*
X41571428Y22090000D01*
X41571428Y22032858D01*
X41542857Y21975715D01*
X41514285Y21947143D01*
X41457142Y21918572D01*
X41342857Y21890000D01*
X41200000Y21890000D01*
X41085714Y21918572D01*
X41028571Y21947143D01*
X41000000Y21975715D01*
X40971428Y22032858D01*
X37972857Y44021429D02*
X38001428Y44050000D01*
X38058571Y44078572D01*
X38201428Y44078572D01*
X38258571Y44050000D01*
X38287142Y44021429D01*
X38315714Y43964286D01*
X38315714Y43907143D01*
X38287142Y43821429D01*
X37944285Y43478572D01*
X38315714Y43478572D01*
X38544285Y44021429D02*
X38572857Y44050000D01*
X38630000Y44078572D01*
X38772857Y44078572D01*
X38830000Y44050000D01*
X38858571Y44021429D01*
X38887142Y43964286D01*
X38887142Y43907143D01*
X38858571Y43821429D01*
X38515714Y43478572D01*
X38887142Y43478572D01*
X8240000Y62458572D02*
X7897142Y62458572D01*
X8068571Y62458572D02*
X8068571Y63058572D01*
X8011428Y62972858D01*
X7954285Y62915715D01*
X7897142Y62887143D01*
X8468571Y63001429D02*
X8497142Y63030000D01*
X8554285Y63058572D01*
X8697142Y63058572D01*
X8754285Y63030000D01*
X8782857Y63001429D01*
X8811428Y62944286D01*
X8811428Y62887143D01*
X8782857Y62801429D01*
X8440000Y62458572D01*
X8811428Y62458572D01*
X9182857Y63058572D02*
X9240000Y63058572D01*
X9297142Y63030000D01*
X9325714Y63001429D01*
X9354285Y62944286D01*
X9382857Y62830000D01*
X9382857Y62687143D01*
X9354285Y62572858D01*
X9325714Y62515715D01*
X9297142Y62487143D01*
X9240000Y62458572D01*
X9182857Y62458572D01*
X9125714Y62487143D01*
X9097142Y62515715D01*
X9068571Y62572858D01*
X9040000Y62687143D01*
X9040000Y62830000D01*
X9068571Y62944286D01*
X9097142Y63001429D01*
X9125714Y63030000D01*
X9182857Y63058572D01*
X22791428Y24621429D02*
X22820000Y24650000D01*
X22877142Y24678572D01*
X23020000Y24678572D01*
X23077142Y24650000D01*
X23105714Y24621429D01*
X23134285Y24564286D01*
X23134285Y24507143D01*
X23105714Y24421429D01*
X22762857Y24078572D01*
X23134285Y24078572D01*
X23362857Y24621429D02*
X23391428Y24650000D01*
X23448571Y24678572D01*
X23591428Y24678572D01*
X23648571Y24650000D01*
X23677142Y24621429D01*
X23705714Y24564286D01*
X23705714Y24507143D01*
X23677142Y24421429D01*
X23334285Y24078572D01*
X23705714Y24078572D01*
X24220000Y24478572D02*
X24220000Y24078572D01*
X23962857Y24478572D02*
X23962857Y24164286D01*
X23991428Y24107143D01*
X24048571Y24078572D01*
X24134285Y24078572D01*
X24191428Y24107143D01*
X24220000Y24135715D01*
X10271428Y26661429D02*
X10300000Y26690000D01*
X10357142Y26718572D01*
X10500000Y26718572D01*
X10557142Y26690000D01*
X10585714Y26661429D01*
X10614285Y26604286D01*
X10614285Y26547143D01*
X10585714Y26461429D01*
X10242857Y26118572D01*
X10614285Y26118572D01*
X10842857Y26661429D02*
X10871428Y26690000D01*
X10928571Y26718572D01*
X11071428Y26718572D01*
X11128571Y26690000D01*
X11157142Y26661429D01*
X11185714Y26604286D01*
X11185714Y26547143D01*
X11157142Y26461429D01*
X10814285Y26118572D01*
X11185714Y26118572D01*
X11442857Y26518572D02*
X11442857Y25918572D01*
X11442857Y26490000D02*
X11500000Y26518572D01*
X11614285Y26518572D01*
X11671428Y26490000D01*
X11700000Y26461429D01*
X11728571Y26404286D01*
X11728571Y26232858D01*
X11700000Y26175715D01*
X11671428Y26147143D01*
X11614285Y26118572D01*
X11500000Y26118572D01*
X11442857Y26147143D01*
X20460000Y62458572D02*
X20117142Y62458572D01*
X20288571Y62458572D02*
X20288571Y63058572D01*
X20231428Y62972858D01*
X20174285Y62915715D01*
X20117142Y62887143D01*
X20688571Y63001429D02*
X20717142Y63030000D01*
X20774285Y63058572D01*
X20917142Y63058572D01*
X20974285Y63030000D01*
X21002857Y63001429D01*
X21031428Y62944286D01*
X21031428Y62887143D01*
X21002857Y62801429D01*
X20660000Y62458572D01*
X21031428Y62458572D01*
X21402857Y63058572D02*
X21460000Y63058572D01*
X21517142Y63030000D01*
X21545714Y63001429D01*
X21574285Y62944286D01*
X21602857Y62830000D01*
X21602857Y62687143D01*
X21574285Y62572858D01*
X21545714Y62515715D01*
X21517142Y62487143D01*
X21460000Y62458572D01*
X21402857Y62458572D01*
X21345714Y62487143D01*
X21317142Y62515715D01*
X21288571Y62572858D01*
X21260000Y62687143D01*
X21260000Y62830000D01*
X21288571Y62944286D01*
X21317142Y63001429D01*
X21345714Y63030000D01*
X21402857Y63058572D01*
X13651428Y58921429D02*
X13651428Y58578572D01*
X13651428Y58750000D02*
X13051428Y58750000D01*
X13137142Y58692858D01*
X13194285Y58635715D01*
X13222857Y58578572D01*
X13651428Y59178572D02*
X13051428Y59178572D01*
X13651428Y59521429D02*
X13308571Y59264286D01*
X13051428Y59521429D02*
X13394285Y59178572D01*
X37500000Y65042858D02*
X37585714Y65014286D01*
X37614285Y64985715D01*
X37642857Y64928572D01*
X37642857Y64842858D01*
X37614285Y64785715D01*
X37585714Y64757143D01*
X37528571Y64728572D01*
X37300000Y64728572D01*
X37300000Y65328572D01*
X37500000Y65328572D01*
X37557142Y65300000D01*
X37585714Y65271429D01*
X37614285Y65214286D01*
X37614285Y65157143D01*
X37585714Y65100000D01*
X37557142Y65071429D01*
X37500000Y65042858D01*
X37300000Y65042858D01*
X38014285Y65328572D02*
X38128571Y65328572D01*
X38185714Y65300000D01*
X38242857Y65242858D01*
X38271428Y65128572D01*
X38271428Y64928572D01*
X38242857Y64814286D01*
X38185714Y64757143D01*
X38128571Y64728572D01*
X38014285Y64728572D01*
X37957142Y64757143D01*
X37900000Y64814286D01*
X37871428Y64928572D01*
X37871428Y65128572D01*
X37900000Y65242858D01*
X37957142Y65300000D01*
X38014285Y65328572D01*
X38642857Y65328572D02*
X38757142Y65328572D01*
X38814285Y65300000D01*
X38871428Y65242858D01*
X38900000Y65128572D01*
X38900000Y64928572D01*
X38871428Y64814286D01*
X38814285Y64757143D01*
X38757142Y64728572D01*
X38642857Y64728572D01*
X38585714Y64757143D01*
X38528571Y64814286D01*
X38500000Y64928572D01*
X38500000Y65128572D01*
X38528571Y65242858D01*
X38585714Y65300000D01*
X38642857Y65328572D01*
X39071428Y65328572D02*
X39414285Y65328572D01*
X39242857Y64728572D02*
X39242857Y65328572D01*
X39928571Y64728572D02*
X39585714Y64728572D01*
X39757142Y64728572D02*
X39757142Y65328572D01*
X39700000Y65242858D01*
X39642857Y65185715D01*
X39585714Y65157143D01*
X38771428Y60628572D02*
X38428571Y60628572D01*
X38600000Y60628572D02*
X38600000Y61228572D01*
X38542857Y61142858D01*
X38485714Y61085715D01*
X38428571Y61057143D01*
X22101428Y23921429D02*
X22130000Y23950000D01*
X22187142Y23978572D01*
X22330000Y23978572D01*
X22387142Y23950000D01*
X22415714Y23921429D01*
X22444285Y23864286D01*
X22444285Y23807143D01*
X22415714Y23721429D01*
X22072857Y23378572D01*
X22444285Y23378572D01*
X22672857Y23921429D02*
X22701428Y23950000D01*
X22758571Y23978572D01*
X22901428Y23978572D01*
X22958571Y23950000D01*
X22987142Y23921429D01*
X23015714Y23864286D01*
X23015714Y23807143D01*
X22987142Y23721429D01*
X22644285Y23378572D01*
X23015714Y23378572D01*
X23530000Y23778572D02*
X23530000Y23378572D01*
X23272857Y23778572D02*
X23272857Y23464286D01*
X23301428Y23407143D01*
X23358571Y23378572D01*
X23444285Y23378572D01*
X23501428Y23407143D01*
X23530000Y23435715D01*
X14022857Y28628572D02*
X14022857Y28228572D01*
X13880000Y28857143D02*
X13737142Y28428572D01*
X14108571Y28428572D01*
X14622857Y28828572D02*
X14337142Y28828572D01*
X14308571Y28542858D01*
X14337142Y28571429D01*
X14394285Y28600000D01*
X14537142Y28600000D01*
X14594285Y28571429D01*
X14622857Y28542858D01*
X14651428Y28485715D01*
X14651428Y28342858D01*
X14622857Y28285715D01*
X14594285Y28257143D01*
X14537142Y28228572D01*
X14394285Y28228572D01*
X14337142Y28257143D01*
X14308571Y28285715D01*
X14851428Y28828572D02*
X15222857Y28828572D01*
X15022857Y28600000D01*
X15108571Y28600000D01*
X15165714Y28571429D01*
X15194285Y28542858D01*
X15222857Y28485715D01*
X15222857Y28342858D01*
X15194285Y28285715D01*
X15165714Y28257143D01*
X15108571Y28228572D01*
X14937142Y28228572D01*
X14880000Y28257143D01*
X14851428Y28285715D01*
X15480000Y28228572D02*
X15480000Y28828572D01*
X15822857Y28228572D02*
X15565714Y28571429D01*
X15822857Y28828572D02*
X15480000Y28485715D01*
X14140000Y63107143D02*
X14225714Y63078572D01*
X14368571Y63078572D01*
X14425714Y63107143D01*
X14454285Y63135715D01*
X14482857Y63192858D01*
X14482857Y63250000D01*
X14454285Y63307143D01*
X14425714Y63335715D01*
X14368571Y63364286D01*
X14254285Y63392858D01*
X14197142Y63421429D01*
X14168571Y63450000D01*
X14140000Y63507143D01*
X14140000Y63564286D01*
X14168571Y63621429D01*
X14197142Y63650000D01*
X14254285Y63678572D01*
X14397142Y63678572D01*
X14482857Y63650000D01*
X14740000Y63078572D02*
X14740000Y63678572D01*
X14968571Y63678572D01*
X15025714Y63650000D01*
X15054285Y63621429D01*
X15082857Y63564286D01*
X15082857Y63478572D01*
X15054285Y63421429D01*
X15025714Y63392858D01*
X14968571Y63364286D01*
X14740000Y63364286D01*
X15340000Y63078572D02*
X15340000Y63678572D01*
X15597142Y63621429D02*
X15625714Y63650000D01*
X15682857Y63678572D01*
X15825714Y63678572D01*
X15882857Y63650000D01*
X15911428Y63621429D01*
X15940000Y63564286D01*
X15940000Y63507143D01*
X15911428Y63421429D01*
X15568571Y63078572D01*
X15940000Y63078572D01*
X20855714Y27968572D02*
X20570000Y27968572D01*
X20570000Y28568572D01*
X15844285Y14028572D02*
X15501428Y14028572D01*
X15672857Y14028572D02*
X15672857Y14628572D01*
X15615714Y14542858D01*
X15558571Y14485715D01*
X15501428Y14457143D01*
X16215714Y14628572D02*
X16272857Y14628572D01*
X16330000Y14600000D01*
X16358571Y14571429D01*
X16387142Y14514286D01*
X16415714Y14400000D01*
X16415714Y14257143D01*
X16387142Y14142858D01*
X16358571Y14085715D01*
X16330000Y14057143D01*
X16272857Y14028572D01*
X16215714Y14028572D01*
X16158571Y14057143D01*
X16130000Y14085715D01*
X16101428Y14142858D01*
X16072857Y14257143D01*
X16072857Y14400000D01*
X16101428Y14514286D01*
X16130000Y14571429D01*
X16158571Y14600000D01*
X16215714Y14628572D01*
X16672857Y14428572D02*
X16672857Y13828572D01*
X16672857Y14400000D02*
X16730000Y14428572D01*
X16844285Y14428572D01*
X16901428Y14400000D01*
X16930000Y14371429D01*
X16958571Y14314286D01*
X16958571Y14142858D01*
X16930000Y14085715D01*
X16901428Y14057143D01*
X16844285Y14028572D01*
X16730000Y14028572D01*
X16672857Y14057143D01*
X42957142Y46385715D02*
X42957142Y46585715D01*
X43271428Y46671429D02*
X43271428Y46385715D01*
X42671428Y46385715D01*
X42671428Y46671429D01*
X42871428Y46842858D02*
X42871428Y47071429D01*
X42671428Y46928572D02*
X43185714Y46928572D01*
X43242857Y46957143D01*
X43271428Y47014286D01*
X43271428Y47071429D01*
X43271428Y47271429D02*
X42671428Y47271429D01*
X43271428Y47528572D02*
X42957142Y47528572D01*
X42900000Y47500000D01*
X42871428Y47442858D01*
X42871428Y47357143D01*
X42900000Y47300000D01*
X42928571Y47271429D01*
X43242857Y48042858D02*
X43271428Y47985715D01*
X43271428Y47871429D01*
X43242857Y47814286D01*
X43185714Y47785715D01*
X42957142Y47785715D01*
X42900000Y47814286D01*
X42871428Y47871429D01*
X42871428Y47985715D01*
X42900000Y48042858D01*
X42957142Y48071429D01*
X43014285Y48071429D01*
X43071428Y47785715D01*
X43271428Y48328572D02*
X42871428Y48328572D01*
X42985714Y48328572D02*
X42928571Y48357143D01*
X42900000Y48385715D01*
X42871428Y48442858D01*
X42871428Y48500000D01*
X43214285Y49042858D02*
X43242857Y49014286D01*
X43271428Y48928572D01*
X43271428Y48871429D01*
X43242857Y48785715D01*
X43185714Y48728572D01*
X43128571Y48700000D01*
X43014285Y48671429D01*
X42928571Y48671429D01*
X42814285Y48700000D01*
X42757142Y48728572D01*
X42700000Y48785715D01*
X42671428Y48871429D01*
X42671428Y48928572D01*
X42700000Y49014286D01*
X42728571Y49042858D01*
X43100000Y49271429D02*
X43100000Y49557143D01*
X43271428Y49214286D02*
X42671428Y49414286D01*
X43271428Y49614286D01*
X42671428Y49728572D02*
X42671428Y50071429D01*
X43271428Y49900000D02*
X42671428Y49900000D01*
X43328571Y50128572D02*
X43328571Y50585715D01*
X43242857Y50700000D02*
X43271428Y50785715D01*
X43271428Y50928572D01*
X43242857Y50985715D01*
X43214285Y51014286D01*
X43157142Y51042858D01*
X43100000Y51042858D01*
X43042857Y51014286D01*
X43014285Y50985715D01*
X42985714Y50928572D01*
X42957142Y50814286D01*
X42928571Y50757143D01*
X42900000Y50728572D01*
X42842857Y50700000D01*
X42785714Y50700000D01*
X42728571Y50728572D01*
X42700000Y50757143D01*
X42671428Y50814286D01*
X42671428Y50957143D01*
X42700000Y51042858D01*
X43271428Y51300000D02*
X42671428Y51300000D01*
X43271428Y51557143D02*
X42957142Y51557143D01*
X42900000Y51528572D01*
X42871428Y51471429D01*
X42871428Y51385715D01*
X42900000Y51328572D01*
X42928571Y51300000D01*
X43271428Y51842858D02*
X42871428Y51842858D01*
X42671428Y51842858D02*
X42700000Y51814286D01*
X42728571Y51842858D01*
X42700000Y51871429D01*
X42671428Y51842858D01*
X42728571Y51842858D01*
X43242857Y52357143D02*
X43271428Y52300000D01*
X43271428Y52185715D01*
X43242857Y52128572D01*
X43185714Y52100000D01*
X42957142Y52100000D01*
X42900000Y52128572D01*
X42871428Y52185715D01*
X42871428Y52300000D01*
X42900000Y52357143D01*
X42957142Y52385715D01*
X43014285Y52385715D01*
X43071428Y52100000D01*
X43271428Y52728572D02*
X43242857Y52671429D01*
X43185714Y52642858D01*
X42671428Y52642858D01*
X43271428Y53214286D02*
X42671428Y53214286D01*
X43242857Y53214286D02*
X43271428Y53157143D01*
X43271428Y53042858D01*
X43242857Y52985715D01*
X43214285Y52957143D01*
X43157142Y52928572D01*
X42985714Y52928572D01*
X42928571Y52957143D01*
X42900000Y52985715D01*
X42871428Y53042858D01*
X42871428Y53157143D01*
X42900000Y53214286D01*
X11125714Y12918572D02*
X10840000Y12918572D01*
X10840000Y13518572D01*
X41500000Y65157143D02*
X42128571Y65157143D01*
X41500000Y64957143D02*
X42128571Y64957143D01*
X41957142Y64728572D02*
X42128571Y64728572D01*
X41785714Y65357143D02*
X41785714Y64728572D01*
X41500000Y65357143D02*
X42128571Y65357143D01*
X42128571Y64728572D01*
X41500000Y65357143D02*
X41500000Y64985715D01*
X41471428Y64814286D01*
X42414285Y65071429D02*
X43014285Y65071429D01*
X42414285Y65271429D02*
X43014285Y65271429D01*
X43014285Y65014286D01*
X42700000Y65414286D02*
X42728571Y65300000D01*
X42414285Y65271429D02*
X42414285Y64957143D01*
X42300000Y64728572D01*
X42414285Y65157143D02*
X42385714Y64842858D01*
X43414285Y65328572D02*
X43900000Y65328572D01*
X43157142Y65242858D02*
X43385714Y65242858D01*
X43471428Y65128572D02*
X43842857Y65128572D01*
X43471428Y65014286D02*
X43842857Y65014286D01*
X43385714Y64900000D02*
X43900000Y64900000D01*
X43300000Y65414286D02*
X43300000Y64728572D01*
X43471428Y65214286D02*
X43471428Y65014286D01*
X43557142Y65414286D02*
X43557142Y65271429D01*
X43757142Y65414286D02*
X43757142Y65271429D01*
X43471428Y65214286D02*
X43842857Y65214286D01*
X43842857Y65014286D01*
X43271428Y65242858D02*
X43357142Y65042858D01*
X43642857Y64928572D02*
X43757142Y64785715D01*
X43900000Y64728572D01*
X43271428Y65271429D02*
X43185714Y64928572D01*
X43642857Y65014286D02*
X43585714Y64842858D01*
X43528571Y64785715D01*
X43385714Y64728572D01*
X44042857Y65242858D02*
X44785714Y65242858D01*
X44071428Y65071429D02*
X44442857Y65071429D01*
X44242857Y65071429D02*
X44242857Y64785715D01*
X44614285Y65385715D02*
X44700000Y65300000D01*
X44442857Y64842858D02*
X44042857Y64757143D01*
X44528571Y65385715D02*
X44528571Y65185715D01*
X44585714Y64785715D01*
X44757142Y64728572D01*
X44785714Y64842858D01*
X191428Y17517143D02*
X677142Y17517143D01*
X734285Y17545715D01*
X762857Y17574286D01*
X791428Y17631429D01*
X791428Y17745715D01*
X762857Y17802858D01*
X734285Y17831429D01*
X677142Y17860000D01*
X191428Y17860000D01*
X620000Y18117143D02*
X620000Y18402858D01*
X791428Y18060000D02*
X191428Y18260000D01*
X791428Y18460000D01*
X791428Y19002858D02*
X505714Y18802858D01*
X791428Y18660000D02*
X191428Y18660000D01*
X191428Y18888572D01*
X220000Y18945715D01*
X248571Y18974286D01*
X305714Y19002858D01*
X391428Y19002858D01*
X448571Y18974286D01*
X477142Y18945715D01*
X505714Y18888572D01*
X505714Y18660000D01*
X191428Y19174286D02*
X191428Y19517143D01*
X791428Y19345715D02*
X191428Y19345715D01*
X248571Y19688572D02*
X220000Y19717143D01*
X191428Y19774286D01*
X191428Y19917143D01*
X220000Y19974286D01*
X248571Y20002858D01*
X305714Y20031429D01*
X362857Y20031429D01*
X448571Y20002858D01*
X791428Y19660000D01*
X791428Y20031429D01*
X38175714Y48518572D02*
X38175714Y48118572D01*
X38032857Y48747143D02*
X37890000Y48318572D01*
X38261428Y48318572D01*
X38490000Y48175715D02*
X38518571Y48147143D01*
X38490000Y48118572D01*
X38461428Y48147143D01*
X38490000Y48175715D01*
X38490000Y48118572D01*
X38718571Y48718572D02*
X39118571Y48718572D01*
X38861428Y48118572D01*
X39347142Y48118572D02*
X39347142Y48718572D01*
X39690000Y48118572D02*
X39432857Y48461429D01*
X39690000Y48718572D02*
X39347142Y48375715D01*
X14892857Y61128572D02*
X14921428Y61214286D01*
X14921428Y61357143D01*
X14892857Y61414286D01*
X14864285Y61442858D01*
X14807142Y61471429D01*
X14750000Y61471429D01*
X14692857Y61442858D01*
X14664285Y61414286D01*
X14635714Y61357143D01*
X14607142Y61242858D01*
X14578571Y61185715D01*
X14550000Y61157143D01*
X14492857Y61128572D01*
X14435714Y61128572D01*
X14378571Y61157143D01*
X14350000Y61185715D01*
X14321428Y61242858D01*
X14321428Y61385715D01*
X14350000Y61471429D01*
X14864285Y62071429D02*
X14892857Y62042858D01*
X14921428Y61957143D01*
X14921428Y61900000D01*
X14892857Y61814286D01*
X14835714Y61757143D01*
X14778571Y61728572D01*
X14664285Y61700000D01*
X14578571Y61700000D01*
X14464285Y61728572D01*
X14407142Y61757143D01*
X14350000Y61814286D01*
X14321428Y61900000D01*
X14321428Y61957143D01*
X14350000Y62042858D01*
X14378571Y62071429D01*
X14921428Y62328572D02*
X14321428Y62328572D01*
X14921428Y62671429D02*
X14578571Y62414286D01*
X14321428Y62671429D02*
X14664285Y62328572D01*
X31015714Y48698572D02*
X30672857Y48698572D01*
X30844285Y48698572D02*
X30844285Y49298572D01*
X30787142Y49212858D01*
X30730000Y49155715D01*
X30672857Y49127143D01*
X31387142Y49298572D02*
X31444285Y49298572D01*
X31501428Y49270000D01*
X31530000Y49241429D01*
X31558571Y49184286D01*
X31587142Y49070000D01*
X31587142Y48927143D01*
X31558571Y48812858D01*
X31530000Y48755715D01*
X31501428Y48727143D01*
X31444285Y48698572D01*
X31387142Y48698572D01*
X31330000Y48727143D01*
X31301428Y48755715D01*
X31272857Y48812858D01*
X31244285Y48927143D01*
X31244285Y49070000D01*
X31272857Y49184286D01*
X31301428Y49241429D01*
X31330000Y49270000D01*
X31387142Y49298572D01*
X31844285Y48698572D02*
X31844285Y49298572D01*
X32187142Y48698572D02*
X31930000Y49041429D01*
X32187142Y49298572D02*
X31844285Y48955715D01*
X44051428Y21021429D02*
X44051428Y20735715D01*
X44337142Y20707143D01*
X44308571Y20735715D01*
X44280000Y20792858D01*
X44280000Y20935715D01*
X44308571Y20992858D01*
X44337142Y21021429D01*
X44394285Y21050000D01*
X44537142Y21050000D01*
X44594285Y21021429D01*
X44622857Y20992858D01*
X44651428Y20935715D01*
X44651428Y20792858D01*
X44622857Y20735715D01*
X44594285Y20707143D01*
X44651428Y21621429D02*
X44651428Y21278572D01*
X44651428Y21450000D02*
X44051428Y21450000D01*
X44137142Y21392858D01*
X44194285Y21335715D01*
X44222857Y21278572D01*
X44051428Y21992858D02*
X44051428Y22050000D01*
X44080000Y22107143D01*
X44108571Y22135715D01*
X44165714Y22164286D01*
X44280000Y22192858D01*
X44422857Y22192858D01*
X44537142Y22164286D01*
X44594285Y22135715D01*
X44622857Y22107143D01*
X44651428Y22050000D01*
X44651428Y21992858D01*
X44622857Y21935715D01*
X44594285Y21907143D01*
X44537142Y21878572D01*
X44422857Y21850000D01*
X44280000Y21850000D01*
X44165714Y21878572D01*
X44108571Y21907143D01*
X44080000Y21935715D01*
X44051428Y21992858D01*
X23198571Y49601429D02*
X23227142Y49630000D01*
X23284285Y49658572D01*
X23427142Y49658572D01*
X23484285Y49630000D01*
X23512857Y49601429D01*
X23541428Y49544286D01*
X23541428Y49487143D01*
X23512857Y49401429D01*
X23170000Y49058572D01*
X23541428Y49058572D01*
X23798571Y49115715D02*
X23827142Y49087143D01*
X23798571Y49058572D01*
X23770000Y49087143D01*
X23798571Y49115715D01*
X23798571Y49058572D01*
X24055714Y49601429D02*
X24084285Y49630000D01*
X24141428Y49658572D01*
X24284285Y49658572D01*
X24341428Y49630000D01*
X24370000Y49601429D01*
X24398571Y49544286D01*
X24398571Y49487143D01*
X24370000Y49401429D01*
X24027142Y49058572D01*
X24398571Y49058572D01*
X24912857Y49458572D02*
X24912857Y49058572D01*
X24655714Y49458572D02*
X24655714Y49144286D01*
X24684285Y49087143D01*
X24741428Y49058572D01*
X24827142Y49058572D01*
X24884285Y49087143D01*
X24912857Y49115715D01*
X28614285Y51408572D02*
X28271428Y51408572D01*
X28442857Y51408572D02*
X28442857Y52008572D01*
X28385714Y51922858D01*
X28328571Y51865715D01*
X28271428Y51837143D01*
X28985714Y52008572D02*
X29042857Y52008572D01*
X29100000Y51980000D01*
X29128571Y51951429D01*
X29157142Y51894286D01*
X29185714Y51780000D01*
X29185714Y51637143D01*
X29157142Y51522858D01*
X29128571Y51465715D01*
X29100000Y51437143D01*
X29042857Y51408572D01*
X28985714Y51408572D01*
X28928571Y51437143D01*
X28900000Y51465715D01*
X28871428Y51522858D01*
X28842857Y51637143D01*
X28842857Y51780000D01*
X28871428Y51894286D01*
X28900000Y51951429D01*
X28928571Y51980000D01*
X28985714Y52008572D01*
X29700000Y51808572D02*
X29700000Y51408572D01*
X29442857Y51808572D02*
X29442857Y51494286D01*
X29471428Y51437143D01*
X29528571Y51408572D01*
X29614285Y51408572D01*
X29671428Y51437143D01*
X29700000Y51465715D01*
X35138571Y46774286D02*
X34738571Y46774286D01*
X35367142Y46917143D02*
X34938571Y47060000D01*
X34938571Y46688572D01*
X34795714Y46460000D02*
X34767142Y46431429D01*
X34738571Y46460000D01*
X34767142Y46488572D01*
X34795714Y46460000D01*
X34738571Y46460000D01*
X35338571Y46231429D02*
X35338571Y45831429D01*
X34738571Y46088572D01*
X34738571Y45602858D02*
X35338571Y45602858D01*
X34738571Y45260000D02*
X35081428Y45517143D01*
X35338571Y45260000D02*
X34995714Y45602858D01*
X27628571Y68768715D02*
X27600000Y68740143D01*
X27514285Y68711572D01*
X27457142Y68711572D01*
X27371428Y68740143D01*
X27314285Y68797286D01*
X27285714Y68854429D01*
X27257142Y68968715D01*
X27257142Y69054429D01*
X27285714Y69168715D01*
X27314285Y69225858D01*
X27371428Y69283000D01*
X27457142Y69311572D01*
X27514285Y69311572D01*
X27600000Y69283000D01*
X27628571Y69254429D01*
X27857142Y68883000D02*
X28142857Y68883000D01*
X27800000Y68711572D02*
X28000000Y69311572D01*
X28200000Y68711572D01*
X28400000Y68711572D02*
X28400000Y69311572D01*
X28742857Y68711572D01*
X28742857Y69311572D01*
X29342857Y68711572D02*
X29000000Y68711572D01*
X29171428Y68711572D02*
X29171428Y69311572D01*
X29114285Y69225858D01*
X29057142Y69168715D01*
X29000000Y69140143D01*
X27657142Y67745572D02*
X27657142Y68345572D01*
X27657142Y68059858D02*
X28000000Y68059858D01*
X28000000Y67745572D02*
X28000000Y68345572D01*
X29028571Y67745572D02*
X28742857Y67745572D01*
X28742857Y68345572D01*
X27300000Y45825858D02*
X27385714Y45797286D01*
X27414285Y45768715D01*
X27442857Y45711572D01*
X27442857Y45625858D01*
X27414285Y45568715D01*
X27385714Y45540143D01*
X27328571Y45511572D01*
X27100000Y45511572D01*
X27100000Y46111572D01*
X27300000Y46111572D01*
X27357142Y46083000D01*
X27385714Y46054429D01*
X27414285Y45997286D01*
X27414285Y45940143D01*
X27385714Y45883000D01*
X27357142Y45854429D01*
X27300000Y45825858D01*
X27100000Y45825858D01*
X27814285Y46111572D02*
X27928571Y46111572D01*
X27985714Y46083000D01*
X28042857Y46025858D01*
X28071428Y45911572D01*
X28071428Y45711572D01*
X28042857Y45597286D01*
X27985714Y45540143D01*
X27928571Y45511572D01*
X27814285Y45511572D01*
X27757142Y45540143D01*
X27700000Y45597286D01*
X27671428Y45711572D01*
X27671428Y45911572D01*
X27700000Y46025858D01*
X27757142Y46083000D01*
X27814285Y46111572D01*
X28442857Y46111572D02*
X28557142Y46111572D01*
X28614285Y46083000D01*
X28671428Y46025858D01*
X28700000Y45911572D01*
X28700000Y45711572D01*
X28671428Y45597286D01*
X28614285Y45540143D01*
X28557142Y45511572D01*
X28442857Y45511572D01*
X28385714Y45540143D01*
X28328571Y45597286D01*
X28300000Y45711572D01*
X28300000Y45911572D01*
X28328571Y46025858D01*
X28385714Y46083000D01*
X28442857Y46111572D01*
X28871428Y46111572D02*
X29214285Y46111572D01*
X29042857Y45511572D02*
X29042857Y46111572D01*
X29728571Y45511572D02*
X29385714Y45511572D01*
X29557142Y45511572D02*
X29557142Y46111572D01*
X29500000Y46025858D01*
X29442857Y45968715D01*
X29385714Y45940143D01*
X27942857Y44945572D02*
X27485714Y44774143D01*
X27942857Y44602715D01*
X28171428Y44745572D02*
X28685714Y44745572D01*
X28857142Y44745572D02*
X29371428Y44745572D01*
X14804285Y26818572D02*
X14461428Y26818572D01*
X14632857Y26818572D02*
X14632857Y27418572D01*
X14575714Y27332858D01*
X14518571Y27275715D01*
X14461428Y27247143D01*
X15175714Y27418572D02*
X15232857Y27418572D01*
X15290000Y27390000D01*
X15318571Y27361429D01*
X15347142Y27304286D01*
X15375714Y27190000D01*
X15375714Y27047143D01*
X15347142Y26932858D01*
X15318571Y26875715D01*
X15290000Y26847143D01*
X15232857Y26818572D01*
X15175714Y26818572D01*
X15118571Y26847143D01*
X15090000Y26875715D01*
X15061428Y26932858D01*
X15032857Y27047143D01*
X15032857Y27190000D01*
X15061428Y27304286D01*
X15090000Y27361429D01*
X15118571Y27390000D01*
X15175714Y27418572D01*
X15632857Y27218572D02*
X15632857Y26618572D01*
X15632857Y27190000D02*
X15690000Y27218572D01*
X15804285Y27218572D01*
X15861428Y27190000D01*
X15890000Y27161429D01*
X15918571Y27104286D01*
X15918571Y26932858D01*
X15890000Y26875715D01*
X15861428Y26847143D01*
X15804285Y26818572D01*
X15690000Y26818572D01*
X15632857Y26847143D01*
X34971428Y63928572D02*
X35028571Y63928572D01*
X35085714Y63900000D01*
X35114285Y63871429D01*
X35142857Y63814286D01*
X35171428Y63700000D01*
X35171428Y63557143D01*
X35142857Y63442858D01*
X35114285Y63385715D01*
X35085714Y63357143D01*
X35028571Y63328572D01*
X34971428Y63328572D01*
X34914285Y63357143D01*
X34885714Y63385715D01*
X34857142Y63442858D01*
X34828571Y63557143D01*
X34828571Y63700000D01*
X34857142Y63814286D01*
X34885714Y63871429D01*
X34914285Y63900000D01*
X34971428Y63928572D01*
X37921428Y21171429D02*
X37921428Y21228572D01*
X37950000Y21285715D01*
X37978571Y21314286D01*
X38035714Y21342858D01*
X38150000Y21371429D01*
X38292857Y21371429D01*
X38407142Y21342858D01*
X38464285Y21314286D01*
X38492857Y21285715D01*
X38521428Y21228572D01*
X38521428Y21171429D01*
X38492857Y21114286D01*
X38464285Y21085715D01*
X38407142Y21057143D01*
X38292857Y21028572D01*
X38150000Y21028572D01*
X38035714Y21057143D01*
X37978571Y21085715D01*
X37950000Y21114286D01*
X37921428Y21171429D01*
D11*
X24014285Y12670298D02*
X24014285Y12836965D01*
X24276190Y12908393D02*
X24276190Y12670298D01*
X23776190Y12670298D01*
X23776190Y12908393D01*
X24276190Y13122679D02*
X23776190Y13122679D01*
X23776190Y13313155D01*
X23800000Y13360774D01*
X23823809Y13384584D01*
X23871428Y13408393D01*
X23942857Y13408393D01*
X23990476Y13384584D01*
X24014285Y13360774D01*
X24038095Y13313155D01*
X24038095Y13122679D01*
X24276190Y13622679D02*
X23776190Y13622679D01*
X23776190Y13813155D01*
X23800000Y13860774D01*
X23823809Y13884584D01*
X23871428Y13908393D01*
X23942857Y13908393D01*
X23990476Y13884584D01*
X24014285Y13860774D01*
X24038095Y13813155D01*
X24038095Y13622679D01*
D12*
%TO.C,R49*%
X31637258Y50732500D02*
X31162742Y50732500D01*
X31637258Y49687500D02*
X31162742Y49687500D01*
%TO.C,R25*%
X12682500Y59042742D02*
X12682500Y59517258D01*
X11637500Y59042742D02*
X11637500Y59517258D01*
%TO.C,U9*%
X33080000Y52820000D02*
X33080000Y54770000D01*
X33080000Y52820000D02*
X33080000Y50870000D01*
X38200000Y52820000D02*
X38200000Y56270000D01*
X38200000Y52820000D02*
X38200000Y50870000D01*
%TO.C,R6*%
X13737742Y13412500D02*
X14212258Y13412500D01*
X13737742Y12367500D02*
X14212258Y12367500D01*
%TO.C,R8*%
X22746665Y11113715D02*
X22746665Y9659587D01*
X24566665Y11113715D02*
X24566665Y9659587D01*
%TO.C,C29*%
X11450000Y62169420D02*
X11450000Y62450580D01*
X10430000Y62169420D02*
X10430000Y62450580D01*
%TO.C,L3*%
X13750000Y21459622D02*
X13750000Y20660378D01*
X12630000Y21459622D02*
X12630000Y20660378D01*
%TO.C,L2*%
X17690000Y19970378D02*
X17690000Y20769622D01*
X18810000Y19970378D02*
X18810000Y20769622D01*
%TO.C,C38*%
X18999420Y30930000D02*
X19280580Y30930000D01*
X18999420Y31950000D02*
X19280580Y31950000D01*
%TO.C,C30*%
X20930580Y52040000D02*
X20649420Y52040000D01*
X20930580Y53060000D02*
X20649420Y53060000D01*
%TO.C,R11*%
X21757101Y5419151D02*
X23211229Y5419151D01*
X21757101Y3599151D02*
X23211229Y3599151D01*
%TO.C,C19*%
X20416665Y9665399D02*
X20416665Y11087903D01*
X22236665Y9665399D02*
X22236665Y11087903D01*
%TO.C,R18*%
X46032500Y21666008D02*
X46032500Y21191492D01*
X44987500Y21666008D02*
X44987500Y21191492D01*
%TO.C,C17*%
X23359420Y26520000D02*
X23640580Y26520000D01*
X23359420Y27540000D02*
X23640580Y27540000D01*
%TO.C,Y2*%
X5785000Y31640000D02*
X2485000Y31640000D01*
X2485000Y31640000D02*
X2485000Y27640000D01*
%TO.C,U3*%
X35481665Y24816651D02*
X35481665Y25616651D01*
X38601665Y24816651D02*
X38601665Y24016651D01*
X35481665Y24816651D02*
X35481665Y24016651D01*
X38601665Y24816651D02*
X38601665Y26616651D01*
%TO.C,SW1*%
X28810000Y55420000D02*
X28810000Y61540000D01*
X32430000Y55420000D02*
X28810000Y55420000D01*
X32430000Y61540000D02*
X32430000Y55420000D01*
X28810000Y61540000D02*
X32430000Y61540000D01*
%TO.C,C5*%
X13674420Y24120000D02*
X13955580Y24120000D01*
X13674420Y23100000D02*
X13955580Y23100000D01*
%TO.C,U6*%
X6110000Y57060000D02*
X6110000Y59010000D01*
X11230000Y57060000D02*
X11230000Y59010000D01*
X6110000Y57060000D02*
X6110000Y53610000D01*
X11230000Y57060000D02*
X11230000Y55110000D01*
%TO.C,C15*%
X23354420Y26020000D02*
X23635580Y26020000D01*
X23354420Y25000000D02*
X23635580Y25000000D01*
%TO.C,C12*%
X10819420Y16940000D02*
X11100580Y16940000D01*
X10819420Y17960000D02*
X11100580Y17960000D01*
%TO.C,R28*%
X37267500Y46297258D02*
X37267500Y45822742D01*
X38312500Y46297258D02*
X38312500Y45822742D01*
%TO.C,R9*%
X36529165Y20989393D02*
X36529165Y21463909D01*
X37574165Y20989393D02*
X37574165Y21463909D01*
%TO.C,R36*%
X20427500Y18382742D02*
X20427500Y18857258D01*
X21472500Y18382742D02*
X21472500Y18857258D01*
%TO.C,FB2*%
X11117779Y14910000D02*
X10792221Y14910000D01*
X11117779Y13890000D02*
X10792221Y13890000D01*
%TO.C,D7*%
X20215000Y14115000D02*
X21685000Y14115000D01*
X21685000Y14115000D02*
X21685000Y16400000D01*
X20215000Y16400000D02*
X20215000Y14115000D01*
%TO.C,C8*%
X13674420Y24620000D02*
X13955580Y24620000D01*
X13674420Y25640000D02*
X13955580Y25640000D01*
%TO.C,R35*%
X23467500Y21877258D02*
X23467500Y21402742D01*
X24512500Y21877258D02*
X24512500Y21402742D01*
%TO.C,C50*%
X24340580Y48710000D02*
X24059420Y48710000D01*
X24340580Y47690000D02*
X24059420Y47690000D01*
%TO.C,J5*%
X26625000Y66810000D02*
X26625000Y65360000D01*
X20655000Y65360000D02*
X22455000Y65360000D01*
X25355000Y69630000D02*
X21925000Y69630000D01*
X26625000Y65360000D02*
X24825000Y65360000D01*
X24825000Y65360000D02*
X24825000Y64370000D01*
X20655000Y66810000D02*
X20655000Y65360000D01*
%TO.C,R31*%
X33327500Y26957258D02*
X33327500Y26482742D01*
X34372500Y26957258D02*
X34372500Y26482742D01*
%TO.C,C55*%
X7135000Y28275580D02*
X7135000Y27994420D01*
X6115000Y28275580D02*
X6115000Y27994420D01*
%TO.C,R19*%
X43457500Y18171492D02*
X43457500Y18646008D01*
X44502500Y18171492D02*
X44502500Y18646008D01*
%TO.C,C7*%
X17760580Y18340000D02*
X17479420Y18340000D01*
X17760580Y17320000D02*
X17479420Y17320000D01*
%TO.C,C34*%
X33095580Y44800000D02*
X32814420Y44800000D01*
X33095580Y45820000D02*
X32814420Y45820000D01*
%TO.C,J7*%
X10925000Y66810000D02*
X10925000Y65360000D01*
X10925000Y65360000D02*
X12725000Y65360000D01*
X18125000Y69630000D02*
X12195000Y69630000D01*
X17595000Y65360000D02*
X17595000Y64370000D01*
X19395000Y66810000D02*
X19395000Y65360000D01*
X19395000Y65360000D02*
X17595000Y65360000D01*
%TO.C,R27*%
X20542742Y61007500D02*
X21017258Y61007500D01*
X20542742Y62052500D02*
X21017258Y62052500D01*
%TO.C,R33*%
X20427500Y21877258D02*
X20427500Y21402742D01*
X21472500Y21877258D02*
X21472500Y21402742D01*
%TO.C,C31*%
X23570000Y62149420D02*
X23570000Y62430580D01*
X22550000Y62149420D02*
X22550000Y62430580D01*
%TO.C,D8*%
X23205000Y14115000D02*
X23205000Y16400000D01*
X21735000Y16400000D02*
X21735000Y14115000D01*
X21735000Y14115000D02*
X23205000Y14115000D01*
%TO.C,D9*%
X23255000Y16400000D02*
X23255000Y14115000D01*
X23255000Y14115000D02*
X24725000Y14115000D01*
X24725000Y14115000D02*
X24725000Y16400000D01*
%TO.C,R37*%
X22992500Y18382742D02*
X22992500Y18857258D01*
X21947500Y18382742D02*
X21947500Y18857258D01*
%TO.C,R32*%
X32852500Y26957258D02*
X32852500Y26482742D01*
X31807500Y26957258D02*
X31807500Y26482742D01*
%TO.C,C32*%
X8800580Y52060000D02*
X8519420Y52060000D01*
X8800580Y53080000D02*
X8519420Y53080000D01*
%TO.C,Y1*%
X6990000Y24490000D02*
X6990000Y21190000D01*
X6990000Y21190000D02*
X10990000Y21190000D01*
%TO.C,R29*%
X36032742Y44312500D02*
X36507258Y44312500D01*
X36032742Y43267500D02*
X36507258Y43267500D01*
D13*
%TO.C,U2*%
X14144000Y19138750D02*
X14144000Y19138750D01*
X17051000Y22290750D02*
X17296000Y22290750D01*
X14389000Y22290750D02*
X14144000Y22290750D01*
X14144000Y22290750D02*
X14144000Y22290750D01*
X14144000Y19138750D02*
X14389000Y19138750D01*
X17296000Y19138750D02*
X17051000Y19138750D01*
X17296000Y22290750D02*
X17296000Y22290750D01*
X14144000Y22290750D02*
X14144000Y19138750D01*
X17296000Y22290750D02*
X17296000Y19138750D01*
X17296000Y19138750D02*
X17296000Y19138750D01*
D10*
X16795000Y22754750D02*
G75*
G03*
X16795000Y22754750I-75000J0D01*
G01*
D12*
%TO.C,R39*%
X42972500Y24212742D02*
X42972500Y24687258D01*
X41927500Y24212742D02*
X41927500Y24687258D01*
D14*
%TO.C,L4*%
X41486665Y9031651D02*
X41486665Y18031651D01*
X24981665Y9031651D02*
X25635665Y9031651D01*
X38287665Y9031651D02*
X38335665Y9031651D01*
X37017665Y9031651D02*
X37065665Y9031651D01*
X39557665Y9031651D02*
X39605665Y9031651D01*
X40827665Y18031651D02*
X41486665Y18031651D01*
X29397665Y18031651D02*
X29445665Y18031651D01*
X24981665Y18031651D02*
X24981665Y9031651D01*
X26857665Y18031651D02*
X26905665Y18031651D01*
X26857665Y9031651D02*
X26905665Y9031651D01*
X33207665Y9031651D02*
X33255665Y9031651D01*
X33207665Y18031651D02*
X33255665Y18031651D01*
X35747665Y18031651D02*
X35795665Y18031651D01*
X29397665Y9031651D02*
X29445665Y9031651D01*
X31937665Y18031651D02*
X31985665Y18031651D01*
X35747665Y9031651D02*
X35795665Y9031651D01*
X34477665Y18031651D02*
X34525665Y18031651D01*
X39557665Y18031651D02*
X39605665Y18031651D01*
X38287665Y18031651D02*
X38335665Y18031651D01*
X24981665Y18031651D02*
X25635665Y18031651D01*
X30667665Y9031651D02*
X30715665Y9031651D01*
X34477665Y9031651D02*
X34525665Y9031651D01*
X40827665Y9031651D02*
X41486665Y9031651D01*
X31937665Y9031651D02*
X31985665Y9031651D01*
X30667665Y18031651D02*
X30715665Y18031651D01*
X37017665Y18031651D02*
X37065665Y18031651D01*
X28127665Y18031651D02*
X28175665Y18031651D01*
X28127665Y9031651D02*
X28175665Y9031651D01*
X25484665Y8451651D02*
G75*
G03*
X25484665Y8451651I-127000J0D01*
G01*
D12*
%TO.C,J6*%
X620000Y15480000D02*
X620000Y10800000D01*
X4890000Y16750000D02*
X4890000Y14950000D01*
X3440000Y16750000D02*
X4890000Y16750000D01*
X3440000Y9530000D02*
X4890000Y9530000D01*
X4890000Y9530000D02*
X4890000Y11330000D01*
X4890000Y14950000D02*
X5880000Y14950000D01*
%TO.C,R47*%
X25392742Y45302500D02*
X25867258Y45302500D01*
X25392742Y44257500D02*
X25867258Y44257500D01*
%TO.C,C44*%
X41209420Y34440000D02*
X41490580Y34440000D01*
X41209420Y35460000D02*
X41490580Y35460000D01*
%TO.C,D1*%
X43185000Y16926250D02*
X43185000Y19211250D01*
X41715000Y19211250D02*
X41715000Y16926250D01*
X41715000Y16926250D02*
X43185000Y16926250D01*
D14*
%TO.C,CN1*%
X34703165Y5209151D02*
X33734165Y5209151D01*
X40728165Y2590151D02*
X40728165Y5212151D01*
X34703165Y5210151D02*
X34703165Y5209151D01*
X40728165Y-135849D02*
X40728165Y328151D01*
X33734165Y328151D02*
X33734165Y-135849D01*
X33734165Y5209151D02*
X33734165Y2590151D01*
X33734165Y-135849D02*
X40728165Y-135849D01*
X40728165Y5212151D02*
X39765165Y5212151D01*
X34317165Y5959151D02*
G75*
G03*
X34317165Y5959151I-283000J0D01*
G01*
D12*
%TO.C,U4*%
X31121665Y24814151D02*
X31121665Y26614151D01*
X28001665Y24814151D02*
X28001665Y24014151D01*
X31121665Y24814151D02*
X31121665Y24014151D01*
X28001665Y24814151D02*
X28001665Y25614151D01*
%TO.C,C54*%
X31540580Y52240000D02*
X31259420Y52240000D01*
X31540580Y51220000D02*
X31259420Y51220000D01*
%TO.C,C13*%
X20615580Y26020000D02*
X20334420Y26020000D01*
X20615580Y25000000D02*
X20334420Y25000000D01*
%TO.C,X1*%
X43690000Y27170000D02*
X43690000Y31170000D01*
X40390000Y27170000D02*
X43690000Y27170000D01*
%TO.C,R26*%
X8422742Y61037500D02*
X8897258Y61037500D01*
X8422742Y62082500D02*
X8897258Y62082500D01*
%TO.C,C46*%
X39040000Y27430580D02*
X39040000Y27149420D01*
X40060000Y27430580D02*
X40060000Y27149420D01*
%TO.C,R17*%
X41927500Y21668508D02*
X41927500Y21193992D01*
X42972500Y21668508D02*
X42972500Y21193992D01*
%TO.C,C9*%
X17605580Y27540000D02*
X17324420Y27540000D01*
X17605580Y26520000D02*
X17324420Y26520000D01*
%TO.C,C18*%
X8075580Y14920000D02*
X7794420Y14920000D01*
X8075580Y13900000D02*
X7794420Y13900000D01*
%TO.C,U7*%
X18230000Y57040000D02*
X18230000Y58990000D01*
X23350000Y57040000D02*
X23350000Y58990000D01*
X23350000Y57040000D02*
X23350000Y55090000D01*
X18230000Y57040000D02*
X18230000Y53590000D01*
%TO.C,C10*%
X14115580Y14920000D02*
X13834420Y14920000D01*
X14115580Y13900000D02*
X13834420Y13900000D01*
%TO.C,C56*%
X6115000Y31014420D02*
X6115000Y31295580D01*
X7135000Y31014420D02*
X7135000Y31295580D01*
%TO.C,D4*%
X2500Y8975000D02*
X2500Y7505000D01*
X2500Y7505000D02*
X2287500Y7505000D01*
X2287500Y8975000D02*
X2500Y8975000D01*
%TO.C,R10*%
X29034165Y20986893D02*
X29034165Y21461409D01*
X30079165Y20986893D02*
X30079165Y21461409D01*
%TO.C,R46*%
X5337258Y38947500D02*
X4862742Y38947500D01*
X5337258Y39992500D02*
X4862742Y39992500D01*
D14*
%TO.C,CN2*%
X25734165Y5209151D02*
X25734165Y2590151D01*
X26703165Y5209151D02*
X25734165Y5209151D01*
X32728165Y5212151D02*
X31765165Y5212151D01*
X25734165Y328151D02*
X25734165Y-135849D01*
X32728165Y2590151D02*
X32728165Y5212151D01*
X32728165Y-135849D02*
X32728165Y328151D01*
X25734165Y-135849D02*
X32728165Y-135849D01*
X26703165Y5210151D02*
X26703165Y5209151D01*
X26317165Y5959151D02*
G75*
G03*
X26317165Y5959151I-283000J0D01*
G01*
D12*
%TO.C,C14*%
X10819420Y16440000D02*
X11100580Y16440000D01*
X10819420Y15420000D02*
X11100580Y15420000D01*
%TO.C,C63*%
X25489420Y46820000D02*
X25770580Y46820000D01*
X25489420Y45800000D02*
X25770580Y45800000D01*
%TO.C,C16*%
X8075580Y15420000D02*
X7794420Y15420000D01*
X8075580Y16440000D02*
X7794420Y16440000D01*
%TO.C,R5*%
X16192500Y24997258D02*
X16192500Y24522742D01*
X17237500Y24997258D02*
X17237500Y24522742D01*
%TO.C,C35*%
X25580000Y34680580D02*
X25580000Y34399420D01*
X24560000Y34680580D02*
X24560000Y34399420D01*
%TO.C,R42*%
X33207500Y47817258D02*
X33207500Y47342742D01*
X34252500Y47817258D02*
X34252500Y47342742D01*
%TO.C,R43*%
X36792500Y46297258D02*
X36792500Y45822742D01*
X35747500Y46297258D02*
X35747500Y45822742D01*
%TO.C,R48*%
X25867258Y43782500D02*
X25392742Y43782500D01*
X25867258Y42737500D02*
X25392742Y42737500D01*
%TO.C,C33*%
X31200000Y44429420D02*
X31200000Y44710580D01*
X30180000Y44429420D02*
X30180000Y44710580D01*
%TO.C,D6*%
X12895000Y54765000D02*
X12895000Y57050000D01*
X11425000Y54765000D02*
X12895000Y54765000D01*
X11425000Y57050000D02*
X11425000Y54765000D01*
%TO.C,R34*%
X22992500Y21877258D02*
X22992500Y21402742D01*
X21947500Y21877258D02*
X21947500Y21402742D01*
%TO.C,J4*%
X9665000Y66800000D02*
X9665000Y65350000D01*
X9665000Y65350000D02*
X7865000Y65350000D01*
X3695000Y66800000D02*
X3695000Y65350000D01*
X8395000Y69620000D02*
X4965000Y69620000D01*
X7865000Y65350000D02*
X7865000Y64360000D01*
X3695000Y65350000D02*
X5495000Y65350000D01*
%TO.C,R23*%
X4280242Y8762500D02*
X4754758Y8762500D01*
X4280242Y7717500D02*
X4754758Y7717500D01*
%TO.C,FB1*%
X20317221Y27540000D02*
X20642779Y27540000D01*
X20317221Y26520000D02*
X20642779Y26520000D01*
%TO.C,R24*%
X23757500Y59022742D02*
X23757500Y59497258D01*
X24802500Y59022742D02*
X24802500Y59497258D01*
%TO.C,J8*%
X9695000Y300000D02*
X19095000Y300000D01*
X19095000Y6100000D02*
X19095000Y4100000D01*
X19095000Y2200000D02*
X19095000Y300000D01*
X9695000Y6100000D02*
X9695000Y4100000D01*
X9695000Y2200000D02*
X9695000Y300000D01*
%TO.C,R7*%
X15247500Y16442742D02*
X15247500Y16917258D01*
X14202500Y16442742D02*
X14202500Y16917258D01*
%TO.C,R4*%
X17702258Y29072500D02*
X17227742Y29072500D01*
X17702258Y28027500D02*
X17227742Y28027500D01*
%TO.C,R41*%
X36507258Y47807500D02*
X36032742Y47807500D01*
X36507258Y48852500D02*
X36032742Y48852500D01*
%TO.C,U5*%
X8950000Y33840000D02*
X8950000Y32475000D01*
X8250000Y47360000D02*
X8250000Y48060000D01*
X8250000Y33840000D02*
X8950000Y33840000D01*
X8250000Y34540000D02*
X8250000Y33840000D01*
X22470000Y33840000D02*
X21770000Y33840000D01*
X8250000Y48060000D02*
X8950000Y48060000D01*
X22470000Y48060000D02*
X21770000Y48060000D01*
X22470000Y34540000D02*
X22470000Y33840000D01*
X22470000Y47360000D02*
X22470000Y48060000D01*
%TO.C,C28*%
X7620580Y24820000D02*
X7339420Y24820000D01*
X7620580Y25840000D02*
X7339420Y25840000D01*
%TO.C,C27*%
X10359420Y25840000D02*
X10640580Y25840000D01*
X10359420Y24820000D02*
X10640580Y24820000D01*
%TO.C,C11*%
X20615580Y24500000D02*
X20334420Y24500000D01*
X20615580Y23480000D02*
X20334420Y23480000D01*
D13*
%TO.C,U8*%
X28005000Y30650000D02*
X28605000Y30650000D01*
X37405000Y30650000D02*
X38005000Y30650000D01*
X37405000Y40650000D02*
X38005000Y40650000D01*
X38005000Y40050000D02*
X38005000Y40650000D01*
X28005000Y30650000D02*
X28005000Y31250000D01*
X28005000Y40650000D02*
X28505000Y40650000D01*
X38005000Y30650000D02*
X38005000Y31250000D01*
X28005000Y40150000D02*
X28005000Y40650000D01*
X25229000Y39450000D02*
G75*
G03*
X25229000Y39450000I-224000J0D01*
G01*
D12*
%TO.C,R44*%
X4862742Y37427500D02*
X5337258Y37427500D01*
X4862742Y38472500D02*
X5337258Y38472500D01*
%TO.C,R38*%
X24512500Y18382742D02*
X24512500Y18857258D01*
X23467500Y18382742D02*
X23467500Y18857258D01*
%TO.C,R50*%
X8742742Y26337500D02*
X9217258Y26337500D01*
X8742742Y27382500D02*
X9217258Y27382500D01*
%TO.C,D2*%
X44775000Y19208750D02*
X44775000Y16923750D01*
X44775000Y16923750D02*
X46245000Y16923750D01*
X46245000Y16923750D02*
X46245000Y19208750D01*
%TO.C,R40*%
X46032500Y24222742D02*
X46032500Y24697258D01*
X44987500Y24222742D02*
X44987500Y24697258D01*
%TO.C,D5*%
X25015000Y54745000D02*
X25015000Y57030000D01*
X23545000Y54745000D02*
X25015000Y54745000D01*
X23545000Y57030000D02*
X23545000Y54745000D01*
%TO.C,C20*%
X21772913Y5939151D02*
X23195417Y5939151D01*
X21772913Y7759151D02*
X23195417Y7759151D01*
%TO.C,C6*%
X17760580Y16820000D02*
X17479420Y16820000D01*
X17760580Y15800000D02*
X17479420Y15800000D01*
%TD*%
M02*
